<svg width="330" height="2" viewBox="0 0 330 2" fill="none" xmlns="http://www.w3.org/2000/svg">
<path d="M0.606815 0.56H5.40681V1.52H0.606815V0.56ZM7.80213 0.56H12.6021V1.52H7.80213V0.56ZM14.9974 0.56H19.7974V1.52H14.9974V0.56ZM22.1928 0.56H26.9928V1.52H22.1928V0.56ZM29.3881 0.56H34.1881V1.52H29.3881V0.56ZM36.5834 0.56H41.3834V1.52H36.5834V0.56ZM43.7787 0.56H48.5787V1.52H43.7787V0.56ZM50.974 0.56H55.774V1.52H50.974V0.56ZM58.1693 0.56H62.9693V1.52H58.1693V0.56ZM65.3646 0.56H70.1646V1.52H65.3646V0.56ZM72.5599 0.56H77.3599V1.52H72.5599V0.56ZM79.7553 0.56H84.5553V1.52H79.7553V0.56ZM86.9506 0.56H91.7506V1.52H86.9506V0.56ZM94.1459 0.56H98.9459V1.52H94.1459V0.56ZM101.341 0.56H106.141V1.52H101.341V0.56ZM108.537 0.56H113.337V1.52H108.537V0.56ZM115.732 0.56H120.532V1.52H115.732V0.56ZM122.927 0.56H127.727V1.52H122.927V0.56ZM130.122 0.56H134.922V1.52H130.122V0.56ZM137.318 0.56H142.118V1.52H137.318V0.56ZM144.513 0.56H149.313V1.52H144.513V0.56ZM151.708 0.56H156.508V1.52H151.708V0.56ZM158.904 0.56H163.704V1.52H158.904V0.56ZM166.099 0.56H170.899V1.52H166.099V0.56ZM173.294 0.56H178.094V1.52H173.294V0.56ZM180.49 0.56H185.29V1.52H180.49V0.56ZM187.685 0.56H192.485V1.52H187.685V0.56ZM194.88 0.56H199.68V1.52H194.88V0.56ZM202.076 0.56H206.876V1.52H202.076V0.56ZM209.271 0.56H214.071V1.52H209.271V0.56ZM216.466 0.56H221.266V1.52H216.466V0.56ZM223.662 0.56H228.462V1.52H223.662V0.56ZM230.857 0.56H235.657V1.52H230.857V0.56ZM238.052 0.56H242.852V1.52H238.052V0.56ZM245.247 0.56H250.047V1.52H245.247V0.56ZM252.443 0.56H257.243V1.52H252.443V0.56ZM259.638 0.56H264.438V1.52H259.638V0.56ZM266.833 0.56H271.633V1.52H266.833V0.56ZM274.029 0.56H278.829V1.52H274.029V0.56ZM281.224 0.56H286.024V1.52H281.224V0.56ZM288.419 0.56H293.219V1.52H288.419V0.56ZM295.615 0.56H300.415V1.52H295.615V0.56ZM302.81 0.56H307.61V1.52H302.81V0.56ZM310.005 0.56H314.805V1.52H310.005V0.56ZM317.201 0.56H322.001V1.52H317.201V0.56ZM324.396 0.56H329.196V1.52H324.396V0.56Z" fill="black"/>
</svg>
