<svg width="184" height="88" viewBox="0 0 184 88" fill="none" xmlns="http://www.w3.org/2000/svg">
<circle cx="50.8386" cy="20.9765" r="20.9765" fill="#F35A69"/>
<mask id="mask0" mask-type="alpha" maskUnits="userSpaceOnUse" x="29" y="0" width="43" height="42">
<circle cx="50.8386" cy="20.9765" r="20.9765" fill="#C4C4C4"/>
</mask>
<g mask="url(#mask0)">
<path d="M64.7099 14.9894H63.0988C62.1124 13.2139 60.2383 12.1289 58.1998 12.1289H43.5358C41.4973 12.1289 39.6232 13.2139 38.6368 14.9894H36.96C36.8285 14.9894 36.7299 15.088 36.7299 15.2195V20.1843C36.7299 20.3158 36.8285 20.4144 36.96 20.4144H38.5711C40.0506 23.1434 43.47 24.1626 46.199 22.6831C46.7579 22.3871 47.284 21.9597 47.7114 21.4994C48.5005 20.6117 49.6513 20.1185 50.8349 20.1185C52.0186 20.1185 53.1365 20.6117 53.9256 21.4665C55.0106 22.6831 56.523 23.3735 58.1669 23.3735C60.2383 23.3735 62.1453 22.2227 63.1317 20.4144H64.7099C64.8414 20.4144 64.94 20.3158 64.94 20.1843V15.2195C64.94 15.088 64.8414 14.9894 64.7099 14.9894ZM58.1669 22.9132C56.6874 22.9132 55.3394 22.2885 54.3201 21.1706C53.4324 20.2171 52.183 19.6582 50.8678 19.6582C49.5527 19.6582 48.2704 20.2171 47.3826 21.2035C45.4757 23.3078 42.2206 23.4721 40.1164 21.5652C38.0121 19.6582 37.8477 16.4032 39.7547 14.2989C40.7411 13.2139 42.122 12.5892 43.5687 12.5892H58.1998C61.0274 12.5892 63.3618 14.8907 63.3618 17.7512C63.3289 20.5788 61.0274 22.9132 58.1669 22.9132Z" fill="white"/>
<path d="M38.3739 8.70939C38.1109 8.41348 38.341 7.95317 38.7356 7.95317H43.0756C44.3907 7.95317 45.673 7.78878 46.9224 7.42711C48.1718 7.06544 49.4541 6.86816 50.835 6.86816C52.2159 6.86816 53.4982 7.06544 54.7476 7.42711C55.997 7.78878 57.3122 7.95317 58.5944 7.95317H62.9345C63.329 7.95317 63.5592 8.41348 63.2961 8.74226L61.5207 10.8465C61.2905 11.1096 61.2905 11.5041 61.5207 11.7671C62.1454 12.4905 62.7043 13.2796 63.1646 14.1015C62.0139 12.5562 60.1726 11.6027 58.1999 11.6027H43.5359C41.4316 11.6027 39.4589 12.6877 38.341 14.4632C38.8342 13.5097 39.4589 12.5891 40.1822 11.7671C40.4124 11.5041 40.4124 11.1096 40.1822 10.8465L38.3739 8.70939ZM49.4541 17.0278C49.4541 15.7455 48.402 14.6605 47.0868 14.6605C45.7717 14.6605 44.7524 15.7126 44.7524 17.0278C44.7524 18.3429 45.8045 19.395 47.1197 19.395C48.4348 19.395 49.4541 18.31 49.4541 17.0278ZM54.5503 19.3622C53.2681 19.3622 52.183 18.31 52.183 16.9949C52.183 15.6797 53.2352 14.6276 54.5503 14.6276C55.8655 14.6276 56.9176 15.6797 56.9176 16.9949C56.9176 18.31 55.8655 19.3622 54.5503 19.3622ZM41.4316 35.0783C41.4316 29.8834 45.6401 25.6749 50.835 25.6749C56.0299 25.6749 60.2384 29.8834 60.2384 35.0783V44.2515C57.5752 43.7584 55.0764 42.509 53.1365 40.5691C50.6049 38.0374 49.1911 34.6509 49.1911 31.0671C49.1911 29.9821 49.3226 28.9299 49.5527 27.9107C49.6842 27.4175 49.2239 26.9572 48.7308 27.0887C47.5142 27.4175 46.3635 28.0093 45.41 28.8642C45.3442 28.9299 45.2785 28.9957 45.2127 29.0615C44.7853 29.456 44.5223 30.0478 44.5223 30.6397C44.5223 30.7712 44.5223 30.9027 44.5223 31.0671C44.5223 33.5001 45.0154 35.8674 45.936 38.1032C46.8567 40.2732 48.1389 42.1802 49.8158 43.857C51.4926 45.5338 53.3996 46.8161 55.5696 47.7367C57.8054 48.6902 60.1726 49.1505 62.6057 49.1505H64.2496C64.6442 49.1505 64.9401 48.8217 64.9401 48.4601V35.0783C64.9401 32.5138 64.2496 30.1136 63.0331 28.0093C64.2496 25.938 64.9401 23.5378 64.9401 20.9404H64.8232C64.764 20.9404 64.7757 20.9404 64.7099 20.9404H63.4605C62.3426 22.7816 60.337 23.8995 58.1999 23.8995C56.4244 23.8995 54.7476 23.1104 53.564 21.7952C53.3338 21.5651 53.0708 21.3349 52.8077 21.1705C52.6762 21.2363 52.5118 21.302 52.4132 21.4335L50.8679 23.2748L49.3226 21.4335C49.2239 21.3349 49.0924 21.2363 48.9609 21.1705C48.665 21.3349 48.402 21.5651 48.1718 21.8281C47.7115 22.3542 47.1526 22.7816 46.5279 23.1433C45.6401 23.6364 44.6209 23.8995 43.6016 23.8995C41.4316 23.8995 39.426 22.7816 38.3081 20.9404H36.993C36.8943 20.9404 36.8987 20.9404 36.8329 20.9404H36.7628C36.7628 23.5049 37.4533 25.938 38.6698 28.0093C37.4533 30.0807 36.7628 32.4809 36.7628 35.0454C36.7628 38.432 37.9465 41.5226 39.9521 43.9556C42.5495 47.112 46.4621 49.1505 50.8679 49.1505C51.4926 49.1505 52.0844 49.1176 52.6762 49.0519C53.3338 48.9532 53.5311 48.0984 52.9393 47.7367C51.4926 46.9147 50.1774 45.8955 48.9938 44.679C48.665 44.3502 48.2705 44.0872 47.8101 43.9228C46.1004 43.3309 44.588 42.2459 43.4701 40.8321C42.1878 39.2868 41.4316 37.2812 41.4316 35.0783Z" fill="#221C35"/>
</g>
<path d="M113.959 21.6941V33.9392C113.959 34.3219 113.672 34.6088 113.289 34.6088H109.271C108.888 34.6088 108.601 34.3219 108.601 33.9392V33.4609C107.358 34.4175 105.731 35.0872 103.914 35.0872C99.9916 35.0872 96.9303 32.3129 96.9303 28.582C96.9303 24.851 99.9916 22.0767 103.914 22.0767C105.54 22.0767 107.071 22.5551 108.314 23.5117V21.8854C108.314 20.2591 107.358 19.3024 105.731 19.3024C104.583 19.3024 103.723 19.7808 103.436 20.6418C103.34 20.9288 103.053 21.1201 102.766 21.1201H98.5566C98.0783 21.1201 97.6956 20.6418 97.7913 20.1634C98.7479 16.9108 101.714 14.6149 105.827 14.6149C110.515 14.5192 113.959 17.3891 113.959 21.6941ZM108.314 28.582C108.314 27.3383 107.071 26.286 105.54 26.286C104.01 26.286 102.766 27.2426 102.766 28.582C102.766 29.8256 104.01 30.7822 105.54 30.7822C107.071 30.7822 108.314 29.8256 108.314 28.582Z" fill="#221C35"/>
<path d="M139.98 28.5817H143.71C144.189 28.5817 144.571 28.8687 144.667 29.2514C144.954 30.0167 145.719 30.495 146.58 30.495C147.633 30.495 148.494 29.8254 148.494 28.9644C148.494 27.7207 146.963 27.1467 145.337 26.7641C142.371 26.0944 139.119 24.5638 139.119 20.5459C139.119 16.5279 142.562 14.3276 146.485 14.3276C150.216 14.3276 153.086 16.4323 153.755 19.3022C153.851 19.8762 153.468 20.4502 152.799 20.4502H148.972C148.589 20.4502 148.302 20.2589 148.111 19.8762C147.92 19.2066 147.25 18.7282 146.389 18.7282C145.432 18.7282 144.763 19.3022 144.763 20.0675C144.763 21.2155 146.102 21.7895 148.015 22.2678C150.981 23.0332 154.138 24.3725 154.138 28.3904C154.138 32.504 150.694 34.8956 146.58 34.8956C142.658 34.8956 139.693 32.5996 139.023 29.634C138.832 29.1557 139.31 28.5817 139.98 28.5817Z" fill="#221C35"/>
<path d="M96.1649 29.7301V33.8437C96.1649 34.2264 95.7823 34.609 95.3996 34.609H82.5805C82.1978 34.609 81.8152 34.2264 81.8152 33.8437V8.77948C81.8152 8.39682 82.1978 8.01416 82.5805 8.01416H87.0768C87.4594 8.01416 87.8421 8.39682 87.8421 8.77948V28.9648H95.4953C95.8779 28.9648 96.1649 29.3474 96.1649 29.7301Z" fill="#221C35"/>
<path d="M137.971 24.7553C137.971 30.5909 133.953 35.0871 128.5 35.0871C126.108 35.0871 124.003 34.1305 122.568 32.4085V33.6522C122.568 34.2261 122.09 34.6088 121.612 34.6088H117.977C117.403 34.6088 117.02 34.1305 117.02 33.6522V7.82262C117.02 7.24863 117.498 6.86597 117.977 6.86597H121.612C122.186 6.86597 122.568 7.34429 122.568 7.82262V17.1021C124.003 15.4758 126.108 14.4235 128.5 14.4235C133.953 14.5192 137.971 18.9198 137.971 24.7553ZM132.231 24.7553C132.231 21.981 130.222 19.8764 127.447 19.8764C124.673 19.8764 122.664 21.981 122.664 24.7553C122.664 27.5296 124.673 29.6342 127.447 29.6342C130.222 29.6342 132.231 27.5296 132.231 24.7553Z" fill="#221C35"/>
<path d="M3.66104 66.1222C4.92383 66.1222 5.63477 65.4808 5.91815 64.9091H5.97781V65.9531H7.42951V60.8821C7.42951 58.6598 5.67951 58.2173 4.46644 58.2173C3.08434 58.2173 1.81161 58.7741 1.31445 60.1662L2.71147 60.4844C2.93022 59.9425 3.48704 59.4205 4.48633 59.4205C5.44585 59.4205 5.93803 59.9226 5.93803 60.7876V60.8224C5.93803 61.3643 5.38121 61.3544 4.00906 61.5135C2.56232 61.6825 1.08079 62.0604 1.08079 63.7955C1.08079 65.2969 2.20934 66.1222 3.66104 66.1222ZM3.9842 64.929C3.144 64.929 2.53746 64.5511 2.53746 63.8153C2.53746 63.0199 3.24343 62.7365 4.10352 62.6222C4.58576 62.5575 5.72923 62.4283 5.943 62.2145V63.1989C5.943 64.1037 5.22212 64.929 3.9842 64.929ZM13.1145 68.8168H14.601V64.7649H14.6905C14.959 65.2521 15.5059 66.1023 16.8979 66.1023C18.7473 66.1023 20.0897 64.6207 20.0897 62.1499C20.0897 59.674 18.7275 58.2173 16.883 58.2173C15.4661 58.2173 14.954 59.0824 14.6905 59.5547H14.5662V58.3168H13.1145V68.8168ZM14.5712 62.1349C14.5712 60.5391 15.2672 59.4801 16.5648 59.4801C17.9121 59.4801 18.5882 60.6186 18.5882 62.1349C18.5882 63.6662 17.8922 64.8345 16.5648 64.8345C15.2871 64.8345 14.5712 63.7408 14.5712 62.1349ZM23.2417 55.7713H21.7551V65.9531H23.2417V55.7713ZM27.4638 66.1222C28.7266 66.1222 29.4375 65.4808 29.7209 64.9091H29.7805V65.9531H31.2322V60.8821C31.2322 58.6598 29.4822 58.2173 28.2692 58.2173C26.8871 58.2173 25.6143 58.7741 25.1172 60.1662L26.5142 60.4844C26.733 59.9425 27.2898 59.4205 28.2891 59.4205C29.2486 59.4205 29.7408 59.9226 29.7408 60.7876V60.8224C29.7408 61.3643 29.1839 61.3544 27.8118 61.5135C26.3651 61.6825 24.8835 62.0604 24.8835 63.7955C24.8835 65.2969 26.0121 66.1222 27.4638 66.1222ZM27.7869 64.929C26.9467 64.929 26.3402 64.5511 26.3402 63.8153C26.3402 63.0199 27.0462 62.7365 27.9062 62.6222C28.3885 62.5575 29.532 62.4283 29.7457 62.2145V63.1989C29.7457 64.1037 29.0249 64.929 27.7869 64.929ZM36.4288 66.1072C38.2335 66.1072 39.4018 65.0234 39.5659 63.5369H38.1191C37.9302 64.3622 37.2889 64.8494 36.4387 64.8494C35.1809 64.8494 34.3706 63.8004 34.3706 62.1349C34.3706 60.4993 35.1958 59.4702 36.4387 59.4702C37.3833 59.4702 37.96 60.0668 38.1191 60.7827H39.5659C39.4068 59.2415 38.149 58.2173 36.4139 58.2173C34.2612 58.2173 32.8691 59.8381 32.8691 62.1697C32.8691 64.4716 34.2115 66.1072 36.4288 66.1072ZM44.4467 66.1072C46.1122 66.1072 47.2905 65.2869 47.6286 64.044L46.2216 63.7905C45.9531 64.5114 45.3068 64.8793 44.4616 64.8793C43.1889 64.8793 42.3338 64.054 42.294 62.5824H47.723V62.0554C47.723 59.2962 46.0724 58.2173 44.3423 58.2173C42.2145 58.2173 40.8125 59.8381 40.8125 62.1847C40.8125 64.5561 42.1946 66.1072 44.4467 66.1072ZM42.299 61.4688C42.3587 60.3849 43.1442 59.4453 44.3523 59.4453C45.5057 59.4453 46.2614 60.3004 46.2663 61.4688H42.299ZM56.7116 58.3168H55.0661V57.6307C55.0661 56.9545 55.3445 56.5866 56.0703 56.5866C56.3786 56.5866 56.5973 56.6562 56.7365 56.701L57.0845 55.4979C56.8757 55.4183 56.4432 55.294 55.8416 55.294C54.6335 55.294 53.5746 56 53.5746 57.4318V58.3168H52.3963V59.5099H53.5746V65.9531H55.0661V59.5099H56.7116V58.3168ZM61.1612 66.1072C63.3139 66.1072 64.7209 64.5312 64.7209 62.1697C64.7209 59.7933 63.3139 58.2173 61.1612 58.2173C59.0085 58.2173 57.6016 59.7933 57.6016 62.1697C57.6016 64.5312 59.0085 66.1072 61.1612 66.1072ZM61.1662 64.8594C59.7592 64.8594 59.103 63.6314 59.103 62.1648C59.103 60.7031 59.7592 59.4602 61.1662 59.4602C62.5632 59.4602 63.2195 60.7031 63.2195 62.1648C63.2195 63.6314 62.5632 64.8594 61.1662 64.8594ZM66.3801 65.9531H67.8667V61.2898C67.8667 60.2905 68.6373 59.5696 69.6912 59.5696C69.9995 59.5696 70.3475 59.6243 70.4668 59.6591V58.2372C70.3176 58.2173 70.0243 58.2024 69.8354 58.2024C68.9405 58.2024 68.1749 58.7095 67.8965 59.5298H67.8169V58.3168H66.3801V65.9531ZM78.7495 66.1072C80.415 66.1072 81.5932 65.2869 81.9313 64.044L80.5243 63.7905C80.2559 64.5114 79.6096 64.8793 78.7644 64.8793C77.4917 64.8793 76.6365 64.054 76.5968 62.5824H82.0257V62.0554C82.0257 59.2962 80.3752 58.2173 78.6451 58.2173C76.5172 58.2173 75.1152 59.8381 75.1152 62.1847C75.1152 64.5561 76.4973 66.1072 78.7495 66.1072ZM76.6017 61.4688C76.6614 60.3849 77.4469 59.4453 78.655 59.4453C79.8084 59.4453 80.5641 60.3004 80.5691 61.4688H76.6017ZM84.6706 58.3168H83.04L85.3865 62.1349L83.0101 65.9531H84.6408L86.356 63.0994L88.0762 65.9531H89.7019L87.3006 62.1349L89.682 58.3168H88.0563L86.356 61.2898L84.6706 58.3168ZM91.2083 68.8168H92.6948V64.7649H92.7843C93.0527 65.2521 93.5996 66.1023 94.9917 66.1023C96.8411 66.1023 98.1834 64.6207 98.1834 62.1499C98.1834 59.674 96.8212 58.2173 94.9767 58.2173C93.5598 58.2173 93.0478 59.0824 92.7843 59.5547H92.66V58.3168H91.2083V68.8168ZM92.665 62.1349C92.665 60.5391 93.361 59.4801 94.6586 59.4801C96.0059 59.4801 96.682 60.6186 96.682 62.1349C96.682 63.6662 95.986 64.8345 94.6586 64.8345C93.3809 64.8345 92.665 63.7408 92.665 62.1349ZM103.14 66.1072C104.806 66.1072 105.984 65.2869 106.322 64.044L104.915 63.7905C104.646 64.5114 104 64.8793 103.155 64.8793C101.882 64.8793 101.027 64.054 100.987 62.5824H106.416V62.0554C106.416 59.2962 104.766 58.2173 103.036 58.2173C100.908 58.2173 99.5059 59.8381 99.5059 62.1847C99.5059 64.5561 100.888 66.1072 103.14 66.1072ZM100.992 61.4688C101.052 60.3849 101.838 59.4453 103.046 59.4453C104.199 59.4453 104.955 60.3004 104.96 61.4688H100.992ZM108.066 65.9531H109.552V61.2898C109.552 60.2905 110.323 59.5696 111.377 59.5696C111.685 59.5696 112.033 59.6243 112.152 59.6591V58.2372C112.003 58.2173 111.71 58.2024 111.521 58.2024C110.626 58.2024 109.86 58.7095 109.582 59.5298H109.502V58.3168H108.066V65.9531ZM113.439 65.9531H114.925V58.3168H113.439V65.9531ZM114.189 57.1385C114.702 57.1385 115.129 56.7408 115.129 56.2536C115.129 55.7663 114.702 55.3636 114.189 55.3636C113.672 55.3636 113.25 55.7663 113.25 56.2536C113.25 56.7408 113.672 57.1385 114.189 57.1385ZM116.925 65.9531H118.412V61.245C118.412 60.2159 119.132 59.5 119.978 59.5C120.803 59.5 121.375 60.0469 121.375 60.8771V65.9531H122.856V61.0859C122.856 60.1662 123.418 59.5 124.387 59.5C125.173 59.5 125.819 59.9375 125.819 60.9716V65.9531H127.306V60.8324C127.306 59.0874 126.331 58.2173 124.949 58.2173C123.85 58.2173 123.025 58.7443 122.657 59.5597H122.578C122.245 58.7244 121.544 58.2173 120.525 58.2173C119.515 58.2173 118.765 58.7195 118.446 59.5597H118.352V58.3168H116.925V65.9531ZM132.589 66.1072C134.255 66.1072 135.433 65.2869 135.771 64.044L134.364 63.7905C134.096 64.5114 133.449 64.8793 132.604 64.8793C131.331 64.8793 130.476 64.054 130.437 62.5824H135.866V62.0554C135.866 59.2962 134.215 58.2173 132.485 58.2173C130.357 58.2173 128.955 59.8381 128.955 62.1847C128.955 64.5561 130.337 66.1072 132.589 66.1072ZM130.442 61.4688C130.501 60.3849 131.287 59.4453 132.495 59.4453C133.648 59.4453 134.404 60.3004 134.409 61.4688H130.442ZM139.001 61.419C139.001 60.201 139.747 59.505 140.781 59.505C141.79 59.505 142.402 60.1662 142.402 61.2749V65.9531H143.888V61.0959C143.888 59.2067 142.849 58.2173 141.288 58.2173C140.14 58.2173 139.389 58.7493 139.036 59.5597H138.942V58.3168H137.515V65.9531H139.001V61.419ZM149.447 58.3168H147.881V56.4872H146.394V58.3168H145.276V59.5099H146.394V64.0192C146.389 65.4062 147.448 66.0774 148.621 66.0526C149.094 66.0476 149.412 65.9581 149.586 65.8935L149.317 64.6655C149.218 64.6854 149.034 64.7301 148.795 64.7301C148.313 64.7301 147.881 64.571 147.881 63.7109V59.5099H149.447V58.3168ZM153.313 66.1222C154.576 66.1222 155.287 65.4808 155.57 64.9091H155.63V65.9531H157.082V60.8821C157.082 58.6598 155.332 58.2173 154.119 58.2173C152.737 58.2173 151.464 58.7741 150.967 60.1662L152.364 60.4844C152.583 59.9425 153.139 59.4205 154.139 59.4205C155.098 59.4205 155.59 59.9226 155.59 60.7876V60.8224C155.59 61.3643 155.034 61.3544 153.661 61.5135C152.215 61.6825 150.733 62.0604 150.733 63.7955C150.733 65.2969 151.862 66.1222 153.313 66.1222ZM153.637 64.929C152.796 64.929 152.19 64.5511 152.19 63.8153C152.19 63.0199 152.896 62.7365 153.756 62.6222C154.238 62.5575 155.382 62.4283 155.595 62.2145V63.1989C155.595 64.1037 154.874 64.929 153.637 64.929ZM162.626 58.3168H161.06V56.4872H159.574V58.3168H158.455V59.5099H159.574V64.0192C159.569 65.4062 160.628 66.0774 161.801 66.0526C162.273 66.0476 162.592 65.9581 162.766 65.8935L162.497 64.6655C162.398 64.6854 162.214 64.7301 161.975 64.7301C161.493 64.7301 161.06 64.571 161.06 63.7109V59.5099H162.626V58.3168ZM164.271 65.9531H165.757V58.3168H164.271V65.9531ZM165.021 57.1385C165.534 57.1385 165.961 56.7408 165.961 56.2536C165.961 55.7663 165.534 55.3636 165.021 55.3636C164.504 55.3636 164.082 55.7663 164.082 56.2536C164.082 56.7408 164.504 57.1385 165.021 57.1385ZM170.974 66.1072C173.126 66.1072 174.533 64.5312 174.533 62.1697C174.533 59.7933 173.126 58.2173 170.974 58.2173C168.821 58.2173 167.414 59.7933 167.414 62.1697C167.414 64.5312 168.821 66.1072 170.974 66.1072ZM170.979 64.8594C169.572 64.8594 168.915 63.6314 168.915 62.1648C168.915 60.7031 169.572 59.4602 170.979 59.4602C172.376 59.4602 173.032 60.7031 173.032 62.1648C173.032 63.6314 172.376 64.8594 170.979 64.8594ZM177.679 61.419C177.679 60.201 178.425 59.505 179.459 59.505C180.468 59.505 181.08 60.1662 181.08 61.2749V65.9531H182.566V61.0959C182.566 59.2067 181.527 58.2173 179.966 58.2173C178.818 58.2173 178.067 58.7493 177.714 59.5597H177.619V58.3168H176.193V65.9531H177.679V61.419ZM48.2519 84.1222C49.5146 84.1222 50.2256 83.4808 50.509 82.9091H50.5686V83.9531H52.0203V78.8821C52.0203 76.6598 50.2703 76.2173 49.0573 76.2173C47.6752 76.2173 46.4024 76.7741 45.9053 78.1662L47.3023 78.4844C47.521 77.9425 48.0779 77.4205 49.0771 77.4205C50.0367 77.4205 50.5289 77.9226 50.5289 78.7876V78.8224C50.5289 79.3643 49.972 79.3544 48.5999 79.5135C47.1531 79.6825 45.6716 80.0604 45.6716 81.7955C45.6716 83.2969 46.8002 84.1222 48.2519 84.1222ZM48.575 82.929C47.7348 82.929 47.1283 82.5511 47.1283 81.8153C47.1283 81.0199 47.8343 80.7365 48.6943 80.6222C49.1766 80.5575 50.32 80.4283 50.5338 80.2145V81.1989C50.5338 82.1037 49.8129 82.929 48.575 82.929ZM57.5649 76.3168H55.9988V74.4872H54.5123V76.3168H53.3937V77.5099H54.5123V82.0192C54.5074 83.4062 55.5663 84.0774 56.7396 84.0526C57.2119 84.0476 57.5301 83.9581 57.7041 83.8935L57.4356 82.6655C57.3362 82.6854 57.1523 82.7301 56.9136 82.7301C56.4314 82.7301 55.9988 82.571 55.9988 81.7109V77.5099H57.5649V76.3168ZM68.3234 76.6996H70.3866C70.3568 74.8849 68.8653 73.6321 66.5983 73.6321C64.366 73.6321 62.7304 74.8651 62.7403 76.7145C62.7354 78.2159 63.7943 79.076 65.5145 79.4886L66.6231 79.767C67.7318 80.0355 68.3483 80.3537 68.3532 81.0398C68.3483 81.7855 67.6423 82.2926 66.5486 82.2926C65.43 82.2926 64.6246 81.7756 64.555 80.7564H62.4719C62.5265 82.9588 64.1025 84.0973 66.5734 84.0973C69.0592 84.0973 70.5209 82.9091 70.5258 81.0447C70.5209 79.3494 69.2432 78.4496 67.4733 78.0518L66.5585 77.8331C65.6736 77.6293 64.9328 77.3011 64.9477 76.5703C64.9477 75.9141 65.5294 75.4318 66.5834 75.4318C67.6125 75.4318 68.2439 75.8991 68.3234 76.6996ZM74.1116 84.0973C75.2401 84.0973 75.971 83.6051 76.3438 82.8942H76.4035V83.9531H78.412V78.8026C78.412 76.983 76.8708 76.2173 75.1705 76.2173C73.341 76.2173 72.1379 77.0923 71.8445 78.4844L73.8034 78.6435C73.9475 78.1364 74.3999 77.7635 75.1606 77.7635C75.8815 77.7635 76.2941 78.1264 76.2941 78.7528V78.7827C76.2941 79.2749 75.7721 79.3395 74.4447 79.4688C72.9333 79.608 71.5761 80.1151 71.5761 81.8203C71.5761 83.3317 72.6549 84.0973 74.1116 84.0973ZM74.7181 82.6357C74.0669 82.6357 73.5995 82.3324 73.5995 81.7507C73.5995 81.1541 74.0917 80.8608 74.8374 80.7564C75.2998 80.6918 76.0555 80.5824 76.309 80.4134V81.2237C76.309 82.0241 75.6478 82.6357 74.7181 82.6357ZM86.901 76.3168H84.6588L83.0779 81.7805H82.9983L81.4124 76.3168H79.1752L81.8449 83.9531H84.2313L86.901 76.3168ZM89.9436 84.0973C91.0722 84.0973 91.803 83.6051 92.1759 82.8942H92.2355V83.9531H94.2441V78.8026C94.2441 76.983 92.7029 76.2173 91.0026 76.2173C89.173 76.2173 87.9699 77.0923 87.6766 78.4844L89.6354 78.6435C89.7796 78.1364 90.232 77.7635 90.9926 77.7635C91.7135 77.7635 92.1262 78.1264 92.1262 78.7528V78.7827C92.1262 79.2749 91.6041 79.3395 90.2767 79.4688C88.7654 79.608 87.4081 80.1151 87.4081 81.8203C87.4081 83.3317 88.4869 84.0973 89.9436 84.0973ZM90.5502 82.6357C89.8989 82.6357 89.4316 82.3324 89.4316 81.7507C89.4316 81.1541 89.9237 80.8608 90.6695 80.7564C91.1318 80.6918 91.8875 80.5824 92.1411 80.4134V81.2237C92.1411 82.0241 91.4798 82.6357 90.5502 82.6357ZM102.241 78.4943C102.052 77.0874 100.918 76.2173 98.9894 76.2173C97.0356 76.2173 95.748 77.1222 95.7529 78.5938C95.748 79.7372 96.4688 80.478 97.9603 80.7763L99.2828 81.0398C99.949 81.174 100.252 81.4176 100.262 81.8004C100.252 82.2528 99.76 82.576 99.0193 82.576C98.2636 82.576 97.7615 82.2528 97.6322 81.6314L95.5491 81.7408C95.748 83.2024 96.9909 84.1023 99.0143 84.1023C100.993 84.1023 102.41 83.093 102.415 81.5866C102.41 80.483 101.689 79.8217 100.207 79.5185L98.8254 79.2401C98.1144 79.0859 97.8509 78.8423 97.8559 78.4744C97.8509 78.017 98.368 77.7188 99.0242 77.7188C99.76 77.7188 100.198 78.1214 100.302 78.6136L102.241 78.4943ZM107.028 83.9531H113.546V82.1783H109.181V73.7713H107.028V83.9531ZM117.11 84.0973C118.238 84.0973 118.969 83.6051 119.342 82.8942H119.402V83.9531H121.41V78.8026C121.41 76.983 119.869 76.2173 118.169 76.2173C116.339 76.2173 115.136 77.0923 114.843 78.4844L116.801 78.6435C116.946 78.1364 117.398 77.7635 118.159 77.7635C118.88 77.7635 119.292 78.1264 119.292 78.7528V78.7827C119.292 79.2749 118.77 79.3395 117.443 79.4688C115.931 79.608 114.574 80.1151 114.574 81.8203C114.574 83.3317 115.653 84.0973 117.11 84.0973ZM117.716 82.6357C117.065 82.6357 116.598 82.3324 116.598 81.7507C116.598 81.1541 117.09 80.8608 117.835 80.7564C118.298 80.6918 119.054 80.5824 119.307 80.4134V81.2237C119.307 82.0241 118.646 82.6357 117.716 82.6357ZM123.093 83.9531H125.181V82.7301H125.275C125.569 83.3665 126.21 84.0774 127.443 84.0774C129.183 84.0774 130.54 82.7003 130.54 80.1449C130.54 77.5199 129.123 76.2173 127.448 76.2173C126.17 76.2173 125.559 76.978 125.275 77.5994H125.211V73.7713H123.093V83.9531ZM125.166 80.1349C125.166 78.7727 125.743 77.9027 126.772 77.9027C127.821 77.9027 128.378 78.8125 128.378 80.1349C128.378 81.4673 127.811 82.392 126.772 82.392C125.753 82.392 125.166 81.4972 125.166 80.1349ZM138.307 78.4943C138.118 77.0874 136.985 76.2173 135.056 76.2173C133.102 76.2173 131.814 77.1222 131.819 78.5938C131.814 79.7372 132.535 80.478 134.027 80.7763L135.349 81.0398C136.015 81.174 136.319 81.4176 136.329 81.8004C136.319 82.2528 135.826 82.576 135.086 82.576C134.33 82.576 133.828 82.2528 133.699 81.6314L131.616 81.7408C131.814 83.2024 133.057 84.1023 135.081 84.1023C137.059 84.1023 138.476 83.093 138.481 81.5866C138.476 80.483 137.755 79.8217 136.274 79.5185L134.892 79.2401C134.181 79.0859 133.917 78.8423 133.922 78.4744C133.917 78.017 134.434 77.7188 135.091 77.7188C135.826 77.7188 136.264 78.1214 136.368 78.6136L138.307 78.4943Z" fill="#221C35"/>
</svg>
