<svg width="116" height="50" viewBox="0 0 116 50" fill="none" xmlns="http://www.w3.org/2000/svg">
<path d="M42.7431 17.1066H46.582C46.8337 17.1066 47.0458 17.2867 47.0903 17.5359C47.3024 18.7028 48.3707 19.5787 49.7079 19.5787C51.1438 19.5787 52.2097 18.693 52.2097 17.5655C52.2097 16.132 50.4703 15.3672 48.4867 14.8491C45.4348 14.0867 42.5062 12.2536 42.5062 8.25678C42.5062 4.68677 45.5581 2 49.5871 2C53.4877 2 56.431 4.46225 56.7345 7.83243C56.7616 8.14083 56.5223 8.40975 56.2139 8.40975H52.3774C52.1233 8.40975 51.9161 8.22471 51.8667 7.97553C51.6694 6.94671 50.7713 6.21149 49.5871 6.21149C48.3066 6.21149 47.3592 7.00592 47.3592 8.07421C47.3592 9.41636 48.763 10.1491 50.8083 10.6993C54.0132 11.5529 57.0651 13.1097 57.0651 17.2595C57.0651 20.9825 53.8923 23.7902 49.6487 23.7902C45.6223 23.7902 42.5309 21.207 42.2274 17.6839C42.1954 17.3755 42.4322 17.1066 42.7431 17.1066Z" fill="#E2646C"/>
<path d="M71.6708 13.201V22.9094C71.6708 23.1931 71.4414 23.425 71.1552 23.425H67.9725C67.6888 23.425 67.4569 23.1956 67.4569 22.9094V22.5097C66.4799 23.3041 65.1994 23.7902 63.7635 23.7902C60.6499 23.7902 58.2099 21.5623 58.2099 18.6313C58.2099 15.6707 60.6524 13.4428 63.7635 13.4428C65.076 13.4428 66.2652 13.84 67.2126 14.5407V13.2282C67.2126 11.9773 66.4182 11.1829 65.1994 11.1829C64.2939 11.1829 63.6081 11.5998 63.3465 12.266C63.2553 12.4954 63.0406 12.6484 62.7939 12.6484H59.4731C59.0783 12.6484 58.7872 12.2709 58.8933 11.8909C59.6236 9.29792 61.9723 7.49194 65.2611 7.49194C68.9545 7.49194 71.6708 9.8111 71.6708 13.201ZM67.2151 18.6313C67.2151 17.6247 66.2381 16.8302 64.9872 16.8302C63.766 16.8302 62.789 17.6247 62.789 18.6313C62.789 19.6083 63.766 20.4027 64.9872 20.4027C66.2381 20.4027 67.2151 19.6083 67.2151 18.6313Z" fill="#E2646C"/>
<path d="M101.509 13.201V22.9094C101.509 23.1931 101.28 23.425 100.993 23.425H97.8107C97.5269 23.425 97.295 23.1956 97.295 22.9094V22.5097C96.318 23.3041 95.0375 23.7902 93.6016 23.7902C90.4881 23.7902 88.048 21.5623 88.048 18.6313C88.048 15.6707 90.4905 13.4428 93.6016 13.4428C94.9142 13.4428 96.1034 13.84 97.0508 14.5407V13.2282C97.0508 11.9773 96.2563 11.1829 95.0376 11.1829C94.1321 11.1829 93.4462 11.5998 93.1847 12.266C93.0934 12.4954 92.8788 12.6484 92.632 12.6484H89.3112C88.9165 12.6484 88.6253 12.2709 88.7314 11.8909C89.4617 9.29792 91.8105 7.49194 95.0992 7.49194C98.7926 7.49194 101.509 9.8111 101.509 13.201ZM97.0532 18.6313C97.0532 17.6247 96.0762 16.8302 94.8254 16.8302C93.6041 16.8302 92.6271 17.6247 92.6271 18.6313C92.6271 19.6083 93.6041 20.4027 94.8254 20.4027C96.0762 20.4027 97.0532 19.6083 97.0532 18.6313Z" fill="#E2646C"/>
<path d="M68.7028 37.9569V47.6653C68.7028 47.949 68.4733 48.1809 68.1872 48.1809H65.0045C64.7208 48.1809 64.4888 47.9514 64.4888 47.6653V47.2656C63.5118 48.06 62.2314 48.546 60.7955 48.546C57.6819 48.546 55.2418 46.3182 55.2418 43.3871C55.2418 40.4265 57.6843 38.1987 60.7955 38.1987C62.108 38.1987 63.2972 38.5959 64.2446 39.2966V37.984C64.2446 36.7331 63.4502 35.9387 62.2314 35.9387C61.3259 35.9387 60.64 36.3557 60.3785 37.0218C60.2872 37.2513 60.0726 37.4042 59.8259 37.4042H56.505C56.1103 37.4042 55.8191 37.0267 55.9252 36.6468C56.6555 34.0538 59.0043 32.2478 62.293 32.2478C65.9864 32.2503 68.7028 34.5694 68.7028 37.9569ZM64.2471 43.3896C64.2471 42.383 63.2701 41.5886 62.0192 41.5886C60.7979 41.5886 59.8209 42.383 59.8209 43.3896C59.8209 44.3666 60.7979 45.1611 62.0192 45.1611C63.2701 45.1611 64.2471 44.3666 64.2471 43.3896Z" fill="#E2646C"/>
<path d="M103.85 18.693H106.796C107.144 18.693 107.443 18.9126 107.568 19.2358C107.8 19.8254 108.402 20.2498 109.113 20.2498C109.966 20.2498 110.64 19.7317 110.64 19.0581C110.64 18.0811 109.419 17.6247 108.138 17.3484C105.79 16.7982 103.224 15.609 103.224 12.4041C103.224 9.19926 105.94 7.4895 109.022 7.4895C111.982 7.4895 114.279 9.17706 114.78 11.4395C114.886 11.9181 114.526 12.3745 114.037 12.3745H111.01C110.726 12.3745 110.45 12.2142 110.356 11.9452C110.171 11.4173 109.651 11.0299 108.994 11.0299C108.262 11.0299 107.682 11.5184 107.682 12.0982C107.682 12.9839 108.75 13.4724 110.275 13.8376C112.624 14.4174 115.096 15.5153 115.096 18.6609C115.096 21.9275 112.379 23.7877 109.083 23.7877C105.972 23.7877 103.604 21.9892 103.108 19.6231C103.007 19.147 103.362 18.693 103.85 18.693Z" fill="#E2646C"/>
<path d="M89.2865 43.4513H92.2324C92.5802 43.4513 92.8787 43.6709 93.0046 43.9941C93.2365 44.5837 93.8385 45.0081 94.549 45.0081C95.4027 45.0081 96.0762 44.49 96.0762 43.8164C96.0762 42.8394 94.855 42.383 93.5745 42.1067C91.2257 41.5565 88.6599 40.3673 88.6599 37.1624C88.6599 33.9576 91.3762 32.2478 94.4577 32.2478C97.4184 32.2478 99.7153 33.9354 100.216 36.1978C100.322 36.6764 99.962 37.1328 99.4735 37.1328H96.4438C96.1601 37.1328 95.8838 36.9725 95.79 36.7035C95.605 36.1756 95.0844 35.7882 94.4281 35.7882C93.6954 35.7882 93.1156 36.2767 93.1156 36.8565C93.1156 37.7422 94.1839 38.2307 95.7086 38.5959C98.0574 39.1757 100.529 40.2736 100.529 43.4192C100.529 46.6858 97.8131 48.546 94.517 48.546C91.4058 48.546 89.0373 46.7475 88.5414 44.3814C88.4428 43.9053 88.798 43.4513 89.2865 43.4513Z" fill="#E2646C"/>
<path d="M54.6497 44.3221V47.5837C54.6497 47.9143 54.3833 48.1808 54.0527 48.1808H43.8607C43.5301 48.1808 43.2636 47.9143 43.2636 47.5837V27.7179C43.2636 27.3873 43.5301 27.1208 43.8607 27.1208H47.3986C47.7292 27.1208 47.9957 27.3873 47.9957 27.7179V43.725H54.0527C54.3808 43.725 54.6497 43.9939 54.6497 44.3221Z" fill="#E2646C"/>
<path d="M87.7544 40.3993C87.7544 45.0376 84.5495 48.5484 80.2468 48.5484C78.3248 48.5484 76.7064 47.7539 75.5468 46.4414V47.4036C75.5468 47.8329 75.1989 48.1808 74.7696 48.1808H71.8682C71.4389 48.1808 71.091 47.8329 71.091 47.4036V26.9876C71.091 26.5559 71.4389 26.208 71.8707 26.208H74.7671C75.1989 26.208 75.5468 26.5559 75.5468 26.9876V34.3571C76.7064 33.0446 78.3248 32.2501 80.2468 32.2501C84.5495 32.2501 87.7544 35.761 87.7544 40.3993ZM83.1753 40.3993C83.1753 38.201 81.5593 36.5529 79.361 36.5529C77.1628 36.5529 75.5468 38.201 75.5468 40.3993C75.5468 42.5951 77.1628 44.2431 79.361 44.2431C81.5593 44.2431 83.1753 42.5951 83.1753 40.3993Z" fill="#E2646C"/>
<path d="M82.4894 8.58497C82.3957 12.2117 81.6012 16.2579 80.2418 19.4135C78.8824 16.2579 78.088 12.2093 77.9942 8.58497C77.9844 8.18282 77.6612 7.85962 77.259 7.85962H74.0122C73.6002 7.85962 73.2597 8.20009 73.2696 8.61211C73.3855 13.7439 74.7005 18.582 76.9383 22.8675C77.1184 23.2129 77.481 23.4251 77.8709 23.4251H82.6128C83.0026 23.4251 83.3628 23.2129 83.5454 22.8675C85.7831 18.5845 87.0957 13.7439 87.2141 8.61211C87.224 8.20009 86.8835 7.85962 86.4715 7.85962H83.2247C82.8225 7.85962 82.4993 8.18282 82.4894 8.58497Z" fill="#E2646C"/>
<path d="M34.1709 31.9446C34.0337 29.5153 33.3831 27.1458 32.2669 24.997C32.6489 24.2629 32.9832 23.5048 33.2577 22.711C33.2637 22.6931 33.2756 22.6812 33.2816 22.6632C33.2995 22.6036 33.3174 22.5439 33.3353 22.4842C33.4607 22.1082 33.5741 21.7321 33.6755 21.3442C33.6875 21.2904 33.6994 21.2427 33.7113 21.189C33.8009 20.8249 33.8785 20.4548 33.9441 20.0788C33.9561 20.0012 33.974 19.9176 33.9859 19.84C34.0516 19.4401 34.0993 19.0402 34.1351 18.6284C34.1411 18.5448 34.1471 18.4553 34.153 18.3717C34.1829 17.948 34.2068 17.5242 34.2068 17.1004C34.2068 16.6766 34.1829 16.2827 34.153 15.9066C33.9083 12.3732 32.5773 8.99487 30.3211 6.25522L32.0341 4.24973C32.5057 3.69464 32.6071 2.94258 32.3027 2.28602C31.9983 1.62946 31.3597 1.21762 30.6315 1.21762H25.7789C24.43 1.21762 23.099 1.03259 21.8217 0.668497C20.2937 0.220843 18.706 0 17.1004 0C15.4948 0 13.9071 0.220843 12.3791 0.662528C11.1018 1.02662 9.7708 1.21165 8.42187 1.21165H3.5693C2.84111 1.21165 2.20246 1.62349 1.89805 2.28005C1.59365 2.93661 1.69512 3.69464 2.16665 4.24376L3.87967 6.24925C1.37281 9.30524 0 13.1372 0 17.1004C0 19.6431 0.549123 22.0902 1.62946 24.3822C1.71302 24.5613 1.80255 24.7344 1.90999 24.9433L1.93387 24.991C1.9279 25.003 1.92193 25.0149 1.91596 25.0269L1.96371 25.0507L2.01146 25.1403L1.88015 25.0806L1.82643 25.188C1.76674 25.3134 1.70705 25.4327 1.62349 25.5999C1.55784 25.7371 1.49815 25.8744 1.43249 26.0177C0.483467 28.1963 0 30.5061 0 32.8877C0 36.4212 1.10421 39.877 3.12761 42.748L3.09777 42.7778L3.84386 43.697C6.92372 47.4693 11.4062 49.7254 16.2349 49.9642C16.408 49.9761 16.5871 49.9761 16.7661 49.9821C16.8736 49.9821 16.981 49.994 17.0825 49.994C17.0885 49.994 17.0944 49.994 17.1004 49.994C17.4346 49.994 17.7689 49.9821 18.0972 49.9642C18.1867 49.9582 18.2762 49.9523 18.3658 49.9463C18.6224 49.9284 18.8791 49.9045 19.1298 49.8747C19.1775 49.8687 19.2253 49.8687 19.273 49.8627C19.2909 49.8627 19.3088 49.8567 19.3267 49.8508C20.6995 49.6717 22.0246 49.3255 23.2721 48.8421C25.5103 49.6061 27.8501 50 30.2495 50H32.0879C33.2458 50 34.1888 49.0569 34.1888 47.899V32.8936V32.8877C34.2008 32.5534 34.1888 32.243 34.1709 31.9446Z" fill="#F9FAFB"/>
<path d="M32.8877 32.8874C32.8877 30.0105 32.1177 27.3186 30.7748 24.9968C29.9571 23.5822 28.9185 22.3049 27.7188 21.2066C27.6949 21.1828 27.6651 21.1649 27.6412 21.141C27.5278 21.0395 27.4144 20.938 27.295 20.8366C27.2592 20.8067 27.2174 20.7769 27.1816 20.7411C27.1279 20.6993 27.0742 20.6515 27.0204 20.6098C26.9787 20.5799 26.9369 20.5441 26.9011 20.5143C26.8653 20.4844 26.7877 20.4247 26.7877 20.4247C24.7881 18.8669 22.4126 17.7806 19.8102 17.3329C19.4461 17.2673 19.0761 17.4105 18.8373 17.6911L17.0945 19.7324L15.3516 17.6911C15.1128 17.4105 14.7428 17.2732 14.3787 17.3329C11.6808 17.7985 9.21574 18.9564 7.16847 20.6098C6.75066 19.428 6.53578 18.1566 6.57159 16.8256C6.71484 11.1434 11.4003 6.57729 17.0885 6.57729C22.8961 6.57132 27.6173 11.2986 27.6173 17.1002C27.6173 17.6433 27.5755 18.1745 27.4979 18.6998C27.4442 19.034 27.5815 19.3742 27.8441 19.5891C28.8946 20.4426 29.8377 21.4036 30.6554 22.466C31.0374 22.9614 31.8193 22.8301 32.0282 22.2392C32.5833 20.6277 32.8817 18.9027 32.8817 17.1002C32.8817 13.1489 31.4313 9.53778 29.0319 6.77426C28.7752 6.47582 28.7693 6.04011 29.0259 5.74167L31.0255 3.39596C31.3179 3.05575 31.0732 2.5305 30.6256 2.5305H25.773C24.3106 2.5305 22.8543 2.32756 21.4516 1.92766C20.0669 1.52775 18.6045 1.31885 17.0885 1.31885C15.5724 1.31885 14.1101 1.53372 12.7253 1.92766C11.3227 2.33353 9.86633 2.5305 8.40399 2.5305H3.56933C3.12167 2.5305 2.87695 3.05575 3.16942 3.39596L5.16894 5.74167C5.4256 6.04011 5.41963 6.47582 5.16298 6.77426C2.76355 9.53778 1.31315 13.1489 1.31315 17.1002C1.31315 19.5055 1.85033 21.7796 2.8113 23.8209C2.88889 23.9821 2.96649 24.1432 3.05005 24.3044C3.07392 24.3581 3.10377 24.4059 3.12764 24.4596C3.15748 24.5133 3.18733 24.573 3.21717 24.6267C3.28283 24.7461 3.34848 24.8714 3.42011 24.9908C3.34251 25.1221 3.27089 25.2594 3.19927 25.3907C3.15152 25.4743 3.10973 25.5638 3.06198 25.6533C3.03811 25.6951 3.0202 25.7369 2.99633 25.7787C2.93664 25.8921 2.88292 26.0115 2.8292 26.1249C2.82324 26.1368 2.81727 26.1487 2.8113 26.1607C2.75161 26.286 2.69192 26.4173 2.63821 26.5486C1.78468 28.4944 1.31315 30.6312 1.31315 32.8874C1.31315 36.6716 2.64417 40.1454 4.86454 42.8612C7.75937 46.4066 12.1583 48.6687 17.0885 48.6687C17.7749 48.6687 18.4434 48.627 19.1059 48.5434C19.852 48.4479 20.049 47.4571 19.3984 47.081C17.7928 46.1499 16.3126 45.0099 14.9815 43.6789L14.9756 43.6729C14.6055 43.3028 14.1578 43.0044 13.6624 42.8373C11.7345 42.1688 10.0573 40.9571 8.81583 39.3814C7.40722 37.5908 6.56563 35.3346 6.56563 32.8874C6.56563 31.6579 6.7805 30.4761 7.16847 29.3778C7.15056 29.3659 7.13862 29.3539 7.12072 29.336C7.13862 29.348 7.15056 29.3599 7.16847 29.3778C7.77131 27.6708 8.8039 26.1666 10.1349 24.9908C11.9912 23.3554 14.4264 22.3586 17.0885 22.3586C19.7505 22.3586 22.1858 23.3554 24.042 24.9908C25.3731 26.1666 26.4057 27.6708 27.0085 29.3778C27.3965 30.4761 27.6113 31.6579 27.6113 32.8874C27.6113 32.8874 27.6113 32.8874 27.6113 32.8934V43.1656C24.621 42.6224 21.8277 41.2078 19.6491 39.0352C16.808 36.2001 15.2442 32.4278 15.2442 28.4169C15.2442 27.2171 15.3814 26.0413 15.662 24.8893C15.7933 24.3342 15.28 23.8388 14.7308 23.9821C13.364 24.3462 12.0867 25.0266 11.0064 25.9756C10.9288 26.0413 10.8512 26.1129 10.7795 26.1845C10.2901 26.6441 10.0096 27.2828 9.99167 27.9513C9.9857 28.1065 9.9857 28.2617 9.9857 28.4169C9.9857 31.1505 10.5229 33.8066 11.5794 36.3015C12.6 38.7129 14.0623 40.8795 15.9186 42.7418C17.7809 44.604 19.9475 46.0604 22.3589 47.081C24.8598 48.1375 27.5099 48.6747 30.2436 48.6747H32.0879C32.5236 48.6747 32.8758 48.3225 32.8758 47.8868L32.8877 32.8874Z" fill="#221C35"/>
<path d="M12.9283 15.3096C14.3821 15.3096 15.5606 14.1311 15.5606 12.6774C15.5606 11.2236 14.3821 10.0452 12.9283 10.0452C11.4746 10.0452 10.2961 11.2236 10.2961 12.6774C10.2961 14.1311 11.4746 15.3096 12.9283 15.3096Z" fill="#221C35"/>
<path d="M21.2727 15.3096C22.7265 15.3096 23.905 14.1311 23.905 12.6774C23.905 11.2236 22.7265 10.0452 21.2727 10.0452C19.819 10.0452 18.6405 11.2236 18.6405 12.6774C18.6405 14.1311 19.819 15.3096 21.2727 15.3096Z" fill="#221C35"/>
</svg>
