<svg width="551" height="251" viewBox="0 0 551 251" fill="none" xmlns="http://www.w3.org/2000/svg">
<path d="M188.265 85.7911H207.468C208.716 85.7911 209.786 86.6894 209.994 87.9471C211.064 93.8162 216.385 98.2479 223.073 98.2479C230.237 98.2479 235.587 93.7862 235.587 88.0968C235.587 80.8802 226.878 77.0174 216.98 74.4122C201.731 70.5793 187.076 61.3265 187.076 41.2039C187.076 23.2073 202.325 9.67249 222.479 9.67249C241.978 9.67249 256.722 22.0695 258.208 39.0479C258.357 40.605 257.138 41.9525 255.592 41.9525H236.39C235.112 41.9525 234.071 41.0242 233.834 39.7666C232.853 34.5862 228.364 30.8731 222.449 30.8731C216.028 30.8731 211.302 34.8557 211.302 40.2457C211.302 47.0131 218.317 50.6963 228.543 53.4811C244.564 57.7931 259.843 65.6385 259.843 86.5397C259.843 105.285 243.97 119.449 222.746 119.449C202.622 119.449 187.165 106.423 185.62 88.6657C185.531 87.1386 186.72 85.7911 188.265 85.7911Z" fill="#F35A69"/>
<path d="M332.936 66.1163V115.045C332.936 116.483 331.777 117.651 330.35 117.651H314.447C313.021 117.651 311.861 116.483 311.861 115.045V113.039C306.986 117.022 300.566 119.507 293.402 119.507C277.826 119.507 265.639 108.278 265.639 93.5154C265.639 78.6031 277.856 67.3739 293.402 67.3739C299.971 67.3739 305.916 69.3802 310.643 72.9137V66.2959C310.643 59.9777 306.689 55.9951 300.566 55.9951C296.048 55.9951 292.599 58.0912 291.292 61.445C290.846 62.6128 289.776 63.3614 288.527 63.3614H271.911C269.949 63.3614 268.463 61.445 268.998 59.5285C272.654 46.4728 284.395 37.3697 300.833 37.3697C319.352 37.3397 332.936 49.048 332.936 66.1163ZM310.672 93.4854C310.672 88.4248 305.797 84.4123 299.525 84.4123C293.432 84.4123 288.527 88.3949 288.527 93.4854C288.527 98.3963 293.402 102.409 299.525 102.409C305.768 102.379 310.672 98.3963 310.672 93.4854Z" fill="#F35A69"/>
<path d="M482.155 66.1163V115.045C482.155 116.483 480.996 117.651 479.569 117.651H463.666C462.239 117.651 461.08 116.483 461.08 115.045V113.039C456.205 117.022 449.784 119.507 442.621 119.507C427.045 119.507 414.858 108.278 414.858 93.5154C414.858 78.6031 427.075 67.3739 442.621 67.3739C449.19 67.3739 455.135 69.3802 459.861 72.9137V66.2959C459.861 59.9777 455.908 55.9951 449.784 55.9951C445.266 55.9951 441.818 58.0912 440.51 61.445C440.064 62.6128 438.994 63.3614 437.746 63.3614H421.13C419.168 63.3614 417.681 61.445 418.216 59.5285C421.873 46.4728 433.614 37.3697 450.052 37.3697C468.571 37.3397 482.155 49.048 482.155 66.1163ZM459.891 93.4854C459.891 88.4248 455.016 84.4123 448.744 84.4123C442.65 84.4123 437.746 88.3949 437.746 93.4854C437.746 98.3963 442.621 102.409 448.744 102.409C454.986 102.379 459.891 98.3963 459.891 93.4854Z" fill="#F35A69"/>
<path d="M318.103 190.835V239.764C318.103 241.202 316.944 242.369 315.517 242.369H299.614C298.188 242.369 297.028 241.202 297.028 239.764V237.758C292.153 241.741 285.733 244.226 278.569 244.226C262.993 244.226 250.806 232.997 250.806 218.234C250.806 203.322 263.023 192.093 278.569 192.093C285.138 192.093 291.083 194.099 295.81 197.633V191.015C295.81 184.697 291.856 180.714 285.733 180.714C281.215 180.714 277.767 182.81 276.459 186.164C276.013 187.332 274.943 188.08 273.694 188.08H257.078C255.116 188.08 253.63 186.164 254.165 184.247C257.821 171.192 269.562 162.089 286 162.089C304.519 162.089 318.103 173.767 318.103 190.835ZM295.81 218.204C295.81 213.144 290.935 209.131 284.663 209.131C278.569 209.131 273.664 213.114 273.664 218.204C273.664 223.115 278.539 227.128 284.663 227.128C290.935 227.128 295.81 223.115 295.81 218.204Z" fill="#F35A69"/>
<path d="M493.867 93.7853H508.611C510.335 93.7853 511.851 94.8932 512.475 96.5102C513.634 99.4747 516.637 101.601 520.204 101.601C524.484 101.601 527.843 98.9956 527.843 95.6119C527.843 90.701 521.749 88.3953 515.329 86.9879C503.587 84.233 490.746 78.2142 490.746 62.0742C490.746 45.9342 504.33 37.3102 519.758 37.3102C534.561 37.3102 546.064 45.8144 548.561 57.1932C549.096 59.5888 547.283 61.8945 544.846 61.8945H529.686C528.259 61.8945 526.892 61.086 526.416 59.7385C525.495 57.0735 522.879 55.1271 519.609 55.1271C515.953 55.1271 513.04 57.5825 513.04 60.5171C513.04 64.9788 518.39 67.4342 526 69.2908C537.741 72.2253 550.107 77.7351 550.107 93.5756C550.107 110.015 536.523 119.418 520.025 119.418C504.479 119.418 492.619 110.344 490.122 98.4266C489.646 96.061 491.43 93.7853 493.867 93.7853Z" fill="#F35A69"/>
<path d="M421.04 218.503H435.784C437.508 218.503 439.024 219.611 439.648 221.228C440.808 224.192 443.81 226.318 447.377 226.318C451.657 226.318 455.016 223.713 455.016 220.33C455.016 215.419 448.923 213.113 442.502 211.706C430.761 208.951 417.919 202.932 417.919 186.792C417.919 170.652 431.504 162.028 446.931 162.028C461.734 162.028 473.238 170.532 475.734 181.911C476.269 184.306 474.456 186.612 472.019 186.612H456.859C455.432 186.612 454.065 185.804 453.589 184.456C452.668 181.791 450.052 179.845 446.782 179.845C443.126 179.845 440.213 182.3 440.213 185.235C440.213 189.696 445.564 192.152 453.173 194.008C464.915 196.943 477.28 202.453 477.28 218.293C477.28 234.733 463.696 244.135 447.198 244.135C431.652 244.135 419.792 235.062 417.295 223.144C416.82 220.779 418.603 218.503 421.04 218.503Z" fill="#F35A69"/>
<path d="M247.803 222.905V239.345C247.803 240.992 246.466 242.339 244.831 242.339H193.882C192.247 242.339 190.91 240.992 190.91 239.345V139.241C190.91 137.594 192.247 136.246 193.882 136.246H211.569C213.204 136.246 214.541 137.594 214.541 139.241V219.881H244.831C246.466 219.881 247.803 221.228 247.803 222.905Z" fill="#F35A69"/>
<path d="M413.372 203.142C413.372 226.498 397.35 244.195 375.829 244.195C366.199 244.195 358.113 240.213 352.317 233.595V238.446C352.317 240.602 350.563 242.369 348.423 242.369H333.917C331.777 242.369 330.023 240.602 330.023 238.446V135.557C330.023 133.401 331.777 131.635 333.917 131.635H348.393C350.533 131.635 352.287 133.401 352.287 135.557V172.688C358.084 166.071 366.169 162.088 375.8 162.088C397.35 162.088 413.372 179.755 413.372 203.142ZM390.484 203.142C390.484 192.062 382.399 183.768 371.4 183.768C360.402 183.768 352.317 192.062 352.317 203.142C352.317 214.221 360.402 222.516 371.4 222.516C382.399 222.516 390.484 214.191 390.484 203.142Z" fill="#F35A69"/>
<path d="M387.035 42.85C386.559 61.1161 382.606 81.5082 375.799 97.4086C368.992 81.5082 365.039 61.1161 364.563 42.85C364.504 40.8138 362.898 39.1968 360.877 39.1968H344.647C342.596 39.1968 340.902 40.9036 340.932 42.9997C341.526 68.8417 348.095 93.2464 359.272 114.806C360.164 116.543 361.977 117.621 363.939 117.621H387.659C389.591 117.621 391.405 116.543 392.326 114.806C403.532 93.2164 410.072 68.8417 410.666 42.9997C410.726 40.9335 409.002 39.1968 406.951 39.1968H390.721C388.7 39.1968 387.094 40.8138 387.035 42.85Z" fill="#F35A69"/>
<path d="M164.983 164.954C164.983 150.524 161.123 137.023 154.391 125.377C150.291 118.282 145.085 111.875 139.07 106.367C138.951 106.247 138.801 106.157 138.681 106.037C138.113 105.529 137.544 105.02 136.946 104.511C136.766 104.361 136.557 104.211 136.377 104.032C136.108 103.822 135.839 103.583 135.569 103.373C135.36 103.223 135.15 103.044 134.971 102.894C134.791 102.744 134.402 102.445 134.402 102.445C124.378 94.6314 112.469 89.1828 99.4223 86.9375C97.5971 86.6082 95.7418 87.3267 94.5449 88.7338L85.8074 98.9723L77.0699 88.7338C75.873 87.3267 74.0178 86.6382 72.1925 86.9375C58.6673 89.2726 46.3092 95.0805 36.0456 103.373C33.951 97.4455 32.8738 91.0689 33.0533 84.3929C33.7715 55.8926 57.261 32.9907 85.7775 32.9907C114.893 32.9607 138.562 56.671 138.562 85.77C138.562 88.4943 138.352 91.1587 137.963 93.7931C137.694 95.4696 138.382 97.1761 139.699 98.2538C144.965 102.535 149.693 107.355 153.792 112.684C155.707 115.168 159.627 114.51 160.675 111.546C163.457 103.463 164.954 94.811 164.954 85.77C164.954 65.9515 157.682 47.8395 145.653 33.9786C144.367 32.4817 144.337 30.2963 145.623 28.7994L155.648 17.0341C157.114 15.3277 155.887 12.6932 153.643 12.6932H129.315C121.984 12.6932 114.683 11.6754 107.651 9.66956C100.709 7.66377 93.3779 6.61597 85.7775 6.61597C78.1771 6.61597 70.846 7.69371 63.9038 9.66956C56.872 11.7053 49.5708 12.6932 42.2397 12.6932H18.0021C15.7579 12.6932 14.531 15.3277 15.9973 17.0341L26.0214 28.7994C27.3081 30.2963 27.2782 32.4817 25.9915 33.9786C13.9625 47.8395 6.69122 65.9515 6.69122 85.77C6.69122 97.8347 9.38429 109.241 14.2019 119.479C14.5909 120.288 14.9799 121.096 15.3988 121.904C15.5185 122.174 15.6681 122.413 15.7878 122.683C15.9374 122.952 16.087 123.251 16.2366 123.521C16.5658 124.12 16.8949 124.748 17.254 125.347C16.865 126.006 16.5059 126.694 16.1469 127.353C15.9075 127.772 15.698 128.221 15.4586 128.67C15.3389 128.88 15.2492 129.089 15.1295 129.299C14.8303 129.868 14.561 130.466 14.2916 131.035C14.2617 131.095 14.2318 131.155 14.2019 131.215C13.9026 131.843 13.6034 132.502 13.3341 133.161C9.05513 142.92 6.69122 153.638 6.69122 164.954C6.69122 183.934 13.364 201.358 24.4954 214.979C39.008 232.762 61.0612 244.108 85.7775 244.108C89.2186 244.108 92.57 243.898 95.8914 243.479C99.6318 243 100.619 238.031 97.3577 236.145C89.3084 231.474 81.8875 225.756 75.2147 219.08L75.1848 219.05C73.3296 217.194 71.0854 215.697 68.6017 214.859C58.9366 211.506 50.5283 205.429 44.3043 197.526C37.2425 188.544 33.0234 177.228 33.0234 164.954C33.0234 158.787 34.1006 152.859 36.0456 147.351C35.9558 147.291 35.896 147.231 35.8062 147.141C35.896 147.201 35.9558 147.261 36.0456 147.351C39.0678 138.789 44.2445 131.245 50.9173 125.347C60.2233 117.144 72.4319 112.145 85.7775 112.145C99.1231 112.145 111.332 117.144 120.638 125.347C127.311 131.245 132.487 138.789 135.509 147.351C137.454 152.859 138.532 158.787 138.532 164.954C138.532 164.954 138.532 164.954 138.532 164.984V216.506C123.54 213.782 109.536 206.686 98.6144 195.789C84.3711 181.569 76.5313 162.649 76.5313 142.531C76.5313 136.514 77.2195 130.616 78.6259 124.838C79.2842 122.054 76.7109 119.569 73.9579 120.288C67.1056 122.114 60.7021 125.527 55.286 130.287C54.897 130.616 54.508 130.975 54.149 131.334C51.6953 133.64 50.2889 136.843 50.1992 140.196C50.1692 140.974 50.1692 141.753 50.1692 142.531C50.1692 156.242 52.8623 169.564 58.1586 182.078C63.2755 194.173 70.6066 205.04 79.9126 214.38C89.2486 223.721 100.111 231.025 112.199 236.145C124.737 241.444 138.023 244.138 151.728 244.138H160.974C163.158 244.138 164.924 242.372 164.924 240.186L164.983 164.954Z" fill="#221C35"/>
<path d="M64.9208 76.7888C72.2088 76.7888 78.1168 70.8779 78.1168 63.5865C78.1168 56.295 72.2088 50.3842 64.9208 50.3842C57.6329 50.3842 51.7248 56.295 51.7248 63.5865C51.7248 70.8779 57.6329 76.7888 64.9208 76.7888Z" fill="#221C35"/>
<path d="M106.754 76.7888C114.042 76.7888 119.95 70.8779 119.95 63.5865C119.95 56.295 114.042 50.3842 106.754 50.3842C99.4663 50.3842 93.5582 56.295 93.5582 63.5865C93.5582 70.8779 99.4663 76.7888 106.754 76.7888Z" fill="#221C35"/>
</svg>
