<svg width="21" height="21" viewBox="0 0 21 21" fill="none" xmlns="http://www.w3.org/2000/svg">
<path d="M10.5 13.4167C9.72646 13.4167 8.98459 13.1094 8.43761 12.5624C7.89063 12.0154 7.58334 11.2735 7.58334 10.5C7.58334 9.72644 7.89063 8.98458 8.43761 8.4376C8.98459 7.89061 9.72646 7.58332 10.5 7.58332C11.2736 7.58332 12.0154 7.89061 12.5624 8.4376C13.1094 8.98458 13.4167 9.72644 13.4167 10.5C13.4167 11.2735 13.1094 12.0154 12.5624 12.5624C12.0154 13.1094 11.2736 13.4167 10.5 13.4167ZM16.6917 11.3083C16.725 11.0417 16.75 10.775 16.75 10.5C16.75 10.225 16.725 9.94999 16.6917 9.66666L18.45 8.30832C18.6083 8.18332 18.65 7.95832 18.55 7.77499L16.8833 4.89166C16.7833 4.70832 16.5583 4.63332 16.375 4.70832L14.3 5.54166C13.8667 5.21666 13.4167 4.93332 12.8917 4.72499L12.5833 2.51666C12.55 2.31666 12.375 2.16666 12.1667 2.16666H8.83334C8.625 2.16666 8.45 2.31666 8.41667 2.51666L8.10834 4.72499C7.58334 4.93332 7.13334 5.21666 6.7 5.54166L4.625 4.70832C4.44167 4.63332 4.21667 4.70832 4.11667 4.89166L2.45 7.77499C2.34167 7.95832 2.39167 8.18332 2.55 8.30832L4.30834 9.66666C4.275 9.94999 4.25 10.225 4.25 10.5C4.25 10.775 4.275 11.0417 4.30834 11.3083L2.55 12.6917C2.39167 12.8167 2.34167 13.0417 2.45 13.225L4.11667 16.1083C4.21667 16.2917 4.44167 16.3583 4.625 16.2917L6.7 15.45C7.13334 15.7833 7.58334 16.0667 8.10834 16.275L8.41667 18.4833C8.45 18.6833 8.625 18.8333 8.83334 18.8333H12.1667C12.375 18.8333 12.55 18.6833 12.5833 18.4833L12.8917 16.275C13.4167 16.0583 13.8667 15.7833 14.3 15.45L16.375 16.2917C16.5583 16.3583 16.7833 16.2917 16.8833 16.1083L18.55 13.225C18.65 13.0417 18.6083 12.8167 18.45 12.6917L16.6917 11.3083Z" fill="black"/>
</svg>
