<svg width="18" height="18" viewBox="0 0 18 18" fill="none" xmlns="http://www.w3.org/2000/svg">
<path d="M8.16666 6.49996H9.83332V4.83329H8.16666V6.49996ZM8.99999 15.6666C5.32499 15.6666 2.33332 12.675 2.33332 8.99996C2.33332 5.32496 5.32499 2.33329 8.99999 2.33329C12.675 2.33329 15.6667 5.32496 15.6667 8.99996C15.6667 12.675 12.675 15.6666 8.99999 15.6666ZM8.99999 0.666626C7.90564 0.666626 6.82201 0.882174 5.81096 1.30096C4.79991 1.71975 3.88125 2.33358 3.10743 3.1074C1.54463 4.67021 0.666656 6.78982 0.666656 8.99996C0.666656 11.2101 1.54463 13.3297 3.10743 14.8925C3.88125 15.6663 4.79991 16.2802 5.81096 16.699C6.82201 17.1177 7.90564 17.3333 8.99999 17.3333C11.2101 17.3333 13.3297 16.4553 14.8925 14.8925C16.4553 13.3297 17.3333 11.2101 17.3333 8.99996C17.3333 7.90561 17.1178 6.82198 16.699 5.81093C16.2802 4.79988 15.6664 3.88122 14.8925 3.1074C14.1187 2.33358 13.2001 1.71975 12.189 1.30096C11.178 0.882174 10.0943 0.666626 8.99999 0.666626ZM8.16666 13.1666H9.83332V8.16663H8.16666V13.1666Z" fill="white"/>
</svg>
