<svg width="20" height="21" viewBox="0 0 20 21" fill="none" xmlns="http://www.w3.org/2000/svg">
<path d="M9.16667 7.99996H10.8333V6.33329H9.16667V7.99996ZM10 17.1666C6.32501 17.1666 3.33334 14.175 3.33334 10.5C3.33334 6.82496 6.32501 3.83329 10 3.83329C13.675 3.83329 16.6667 6.82496 16.6667 10.5C16.6667 14.175 13.675 17.1666 10 17.1666ZM10 2.16663C8.90566 2.16663 7.82202 2.38217 6.81098 2.80096C5.79993 3.21975 4.88127 3.83358 4.10745 4.6074C2.54465 6.17021 1.66667 8.28982 1.66667 10.5C1.66667 12.7101 2.54465 14.8297 4.10745 16.3925C4.88127 17.1663 5.79993 17.7802 6.81098 18.199C7.82202 18.6177 8.90566 18.8333 10 18.8333C12.2101 18.8333 14.3298 17.9553 15.8926 16.3925C17.4554 14.8297 18.3333 12.7101 18.3333 10.5C18.3333 9.40561 18.1178 8.32198 17.699 7.31093C17.2802 6.29988 16.6664 5.38122 15.8926 4.6074C15.1187 3.83358 14.2001 3.21975 13.189 2.80096C12.178 2.38217 11.0944 2.16663 10 2.16663ZM9.16667 14.6666H10.8333V9.66663H9.16667V14.6666Z" fill="black"/>
</svg>
