<svg width="111" height="50" viewBox="0 0 111 50" fill="none" xmlns="http://www.w3.org/2000/svg">
<path d="M37.7431 16.8336H41.582C41.8337 16.8336 42.0458 17.0137 42.0903 17.2629C42.3024 18.4299 43.3707 19.3058 44.7079 19.3058C46.1438 19.3058 47.2097 18.42 47.2097 17.2925C47.2097 15.8591 45.4703 15.0943 43.4867 14.5762C40.4348 13.8138 37.5062 11.9807 37.5062 7.98384C37.5062 4.41382 40.5581 1.72705 44.5871 1.72705C48.4877 1.72705 51.431 4.1893 51.7345 7.55948C51.7616 7.86788 51.5223 8.1368 51.2139 8.1368H47.3774C47.1233 8.1368 46.9161 7.95176 46.8667 7.70258C46.6694 6.67376 45.7713 5.93854 44.5871 5.93854C43.3066 5.93854 42.3592 6.73297 42.3592 7.80126C42.3592 9.14341 43.763 9.87617 45.8083 10.4263C49.0132 11.28 52.0651 12.8368 52.0651 16.9866C52.0651 20.7096 48.8923 23.5172 44.6487 23.5172C40.6223 23.5172 37.5309 20.9341 37.2274 17.411C37.1954 17.1026 37.4322 16.8336 37.7431 16.8336Z" fill="#221C35"/>
<path d="M66.6708 12.9281V22.6364C66.6708 22.9202 66.4414 23.1521 66.1552 23.1521H62.9725C62.6888 23.1521 62.4569 22.9226 62.4569 22.6364V22.2368C61.4799 23.0312 60.1994 23.5172 58.7635 23.5172C55.6499 23.5172 53.2099 21.2894 53.2099 18.3583C53.2099 15.3977 55.6524 13.1698 58.7635 13.1698C60.076 13.1698 61.2652 13.5671 62.2126 14.2677V12.9552C62.2126 11.7043 61.4182 10.9099 60.1994 10.9099C59.2939 10.9099 58.6081 11.3269 58.3465 11.993C58.2553 12.2224 58.0406 12.3754 57.7939 12.3754H54.4731C54.0783 12.3754 53.7872 11.9979 53.8933 11.618C54.6236 9.02498 56.9723 7.21899 60.2611 7.21899C63.9545 7.21899 66.6708 9.53815 66.6708 12.9281ZM62.2151 18.3583C62.2151 17.3517 61.2381 16.5573 59.9872 16.5573C58.766 16.5573 57.789 17.3517 57.789 18.3583C57.789 19.3353 58.766 20.1298 59.9872 20.1298C61.2381 20.1298 62.2151 19.3353 62.2151 18.3583Z" fill="#221C35"/>
<path d="M96.509 12.9281V22.6364C96.509 22.9202 96.2795 23.1521 95.9933 23.1521H92.8107C92.5269 23.1521 92.295 22.9226 92.295 22.6364V22.2368C91.318 23.0312 90.0375 23.5172 88.6016 23.5172C85.4881 23.5172 83.048 21.2894 83.048 18.3583C83.048 15.3977 85.4905 13.1698 88.6016 13.1698C89.9142 13.1698 91.1034 13.5671 92.0508 14.2677V12.9552C92.0508 11.7043 91.2563 10.9099 90.0376 10.9099C89.1321 10.9099 88.4462 11.3269 88.1847 11.993C88.0934 12.2224 87.8788 12.3754 87.632 12.3754H84.3112C83.9165 12.3754 83.6253 11.9979 83.7314 11.618C84.4617 9.02498 86.8105 7.21899 90.0992 7.21899C93.7926 7.21899 96.509 9.53815 96.509 12.9281ZM92.0532 18.3583C92.0532 17.3517 91.0762 16.5573 89.8254 16.5573C88.6041 16.5573 87.6271 17.3517 87.6271 18.3583C87.6271 19.3353 88.6041 20.1298 89.8254 20.1298C91.0762 20.1298 92.0532 19.3353 92.0532 18.3583Z" fill="#221C35"/>
<path d="M63.7028 37.6839V47.3923C63.7028 47.676 63.4733 47.9079 63.1872 47.9079H60.0045C59.7208 47.9079 59.4888 47.6785 59.4888 47.3923V46.9926C58.5118 47.7871 57.2314 48.2731 55.7955 48.2731C52.6819 48.2731 50.2418 46.0452 50.2418 43.1142C50.2418 40.1536 52.6843 37.9257 55.7955 37.9257C57.108 37.9257 58.2972 38.3229 59.2446 39.0236V37.7111C59.2446 36.4602 58.4502 35.6658 57.2314 35.6658C56.3259 35.6658 55.64 36.0827 55.3785 36.7489C55.2872 36.9783 55.0726 37.1313 54.8259 37.1313H51.505C51.1103 37.1313 50.8191 36.7538 50.9252 36.3738C51.6555 33.7808 54.0043 31.9749 57.293 31.9749C60.9864 31.9773 63.7028 34.2965 63.7028 37.6839ZM59.2471 43.1167C59.2471 42.1101 58.2701 41.3156 57.0192 41.3156C55.7979 41.3156 54.8209 42.1101 54.8209 43.1167C54.8209 44.0937 55.7979 44.8881 57.0192 44.8881C58.2701 44.8881 59.2471 44.0937 59.2471 43.1167Z" fill="#221C35"/>
<path d="M98.8503 18.42H101.796C102.144 18.42 102.443 18.6396 102.568 18.9628C102.8 19.5525 103.402 19.9768 104.113 19.9768C104.966 19.9768 105.64 19.4587 105.64 18.7852C105.64 17.8082 104.419 17.3518 103.138 17.0754C100.79 16.5252 98.2237 15.3361 98.2237 12.1312C98.2237 8.92631 100.94 7.21655 104.022 7.21655C106.982 7.21655 109.279 8.90411 109.78 11.1665C109.886 11.6452 109.526 12.1016 109.037 12.1016H106.01C105.726 12.1016 105.45 11.9412 105.356 11.6723C105.171 11.1443 104.651 10.757 103.994 10.757C103.262 10.757 102.682 11.2455 102.682 11.8253C102.682 12.711 103.75 13.1995 105.275 13.5646C107.624 14.1444 110.096 15.2423 110.096 18.388C110.096 21.6545 107.379 23.5148 104.083 23.5148C100.972 23.5148 98.6036 21.7162 98.1077 19.3502C98.0065 18.874 98.3618 18.42 98.8503 18.42Z" fill="#221C35"/>
<path d="M84.2865 43.1783H87.2324C87.5802 43.1783 87.8787 43.3979 88.0046 43.7211C88.2365 44.3108 88.8385 44.7351 89.549 44.7351C90.4027 44.7351 91.0762 44.217 91.0762 43.5435C91.0762 42.5665 89.855 42.1101 88.5745 41.8337C86.2257 41.2835 83.6599 40.0944 83.6599 36.8895C83.6599 33.6846 86.3762 31.9749 89.4577 31.9749C92.4184 31.9749 94.7153 33.6624 95.2162 35.9248C95.3223 36.4035 94.962 36.8599 94.4735 36.8599H91.4438C91.1601 36.8599 90.8838 36.6995 90.79 36.4306C90.605 35.9026 90.0844 35.5153 89.4281 35.5153C88.6954 35.5153 88.1156 36.0038 88.1156 36.5836C88.1156 37.4693 89.1839 37.9578 90.7086 38.3229C93.0574 38.9027 95.5295 40.0006 95.5295 43.1463C95.5295 46.4128 92.8131 48.2731 89.517 48.2731C86.4058 48.2731 84.0373 46.4745 83.5414 44.1085C83.4428 43.6323 83.798 43.1783 84.2865 43.1783Z" fill="#221C35"/>
<path d="M49.6497 44.0491V47.3107C49.6497 47.6413 49.3833 47.9078 49.0527 47.9078H38.8607C38.5301 47.9078 38.2636 47.6413 38.2636 47.3107V27.445C38.2636 27.1144 38.5301 26.8479 38.8607 26.8479H42.3986C42.7292 26.8479 42.9957 27.1144 42.9957 27.445V43.4521H49.0527C49.3808 43.4521 49.6497 43.721 49.6497 44.0491Z" fill="#221C35"/>
<path d="M82.7544 40.1263C82.7544 44.7646 79.5495 48.2754 75.2468 48.2754C73.3248 48.2754 71.7064 47.481 70.5468 46.1685V47.1307C70.5468 47.5599 70.1989 47.9078 69.7696 47.9078H66.8682C66.4389 47.9078 66.091 47.5599 66.091 47.1307V26.7147C66.091 26.2829 66.4389 25.9351 66.8707 25.9351H69.7671C70.1989 25.9351 70.5468 26.2829 70.5468 26.7147V34.0842C71.7064 32.7716 73.3248 31.9772 75.2468 31.9772C79.5495 31.9772 82.7544 35.488 82.7544 40.1263ZM78.1753 40.1263C78.1753 37.928 76.5593 36.28 74.361 36.28C72.1628 36.28 70.5468 37.928 70.5468 40.1263C70.5468 42.3221 72.1628 43.9702 74.361 43.9702C76.5593 43.9702 78.1753 42.3221 78.1753 40.1263Z" fill="#221C35"/>
<path d="M77.4894 8.31202C77.3957 11.9388 76.6012 15.985 75.2418 19.1405C73.8824 15.985 73.088 11.9363 72.9942 8.31202C72.9844 7.90987 72.6612 7.58667 72.259 7.58667H69.0122C68.6002 7.58667 68.2597 7.92714 68.2696 8.33916C68.3855 13.4709 69.7005 18.3091 71.9383 22.5946C72.1184 22.94 72.481 23.1521 72.8709 23.1521H77.6128C78.0026 23.1521 78.3628 22.94 78.5454 22.5946C80.7831 18.3115 82.0957 13.4709 82.2141 8.33916C82.224 7.92714 81.8835 7.58667 81.4715 7.58667H78.2247C77.8225 7.58667 77.4993 7.90987 77.4894 8.31202Z" fill="#221C35"/>
<path d="M32.8877 32.8874C32.8877 30.0105 32.1177 27.3186 30.7748 24.9968C29.9571 23.5822 28.9185 22.3049 27.7188 21.2066C27.6949 21.1828 27.6651 21.1649 27.6412 21.141C27.5278 21.0395 27.4144 20.938 27.295 20.8366C27.2592 20.8067 27.2174 20.7769 27.1816 20.7411C27.1279 20.6993 27.0742 20.6515 27.0204 20.6098C26.9787 20.5799 26.9369 20.5441 26.9011 20.5143C26.8653 20.4844 26.7877 20.4247 26.7877 20.4247C24.7881 18.8669 22.4126 17.7806 19.8102 17.3329C19.4461 17.2673 19.0761 17.4105 18.8373 17.6911L17.0945 19.7324L15.3516 17.6911C15.1128 17.4105 14.7428 17.2732 14.3787 17.3329C11.6808 17.7985 9.21574 18.9564 7.16847 20.6098C6.75066 19.428 6.53578 18.1566 6.57159 16.8256C6.71484 11.1434 11.4003 6.57729 17.0885 6.57729C22.8961 6.57132 27.6173 11.2986 27.6173 17.1002C27.6173 17.6433 27.5755 18.1745 27.4979 18.6998C27.4442 19.034 27.5815 19.3742 27.8441 19.5891C28.8946 20.4426 29.8377 21.4036 30.6554 22.466C31.0374 22.9614 31.8193 22.8301 32.0282 22.2392C32.5833 20.6277 32.8817 18.9027 32.8817 17.1002C32.8817 13.1489 31.4313 9.53778 29.0319 6.77426C28.7752 6.47582 28.7693 6.04011 29.0259 5.74167L31.0255 3.39596C31.3179 3.05575 31.0732 2.5305 30.6256 2.5305H25.773C24.3106 2.5305 22.8543 2.32756 21.4516 1.92766C20.0669 1.52775 18.6045 1.31885 17.0885 1.31885C15.5724 1.31885 14.1101 1.53372 12.7253 1.92766C11.3227 2.33353 9.86633 2.5305 8.40399 2.5305H3.56933C3.12167 2.5305 2.87695 3.05575 3.16942 3.39596L5.16894 5.74167C5.4256 6.04011 5.41963 6.47582 5.16298 6.77426C2.76355 9.53778 1.31315 13.1489 1.31315 17.1002C1.31315 19.5055 1.85033 21.7796 2.8113 23.8209C2.88889 23.9821 2.96649 24.1432 3.05005 24.3044C3.07392 24.3581 3.10377 24.4059 3.12764 24.4596C3.15748 24.5133 3.18733 24.573 3.21717 24.6267C3.28283 24.7461 3.34848 24.8714 3.42011 24.9908C3.34251 25.1221 3.27089 25.2594 3.19927 25.3907C3.15152 25.4743 3.10973 25.5638 3.06198 25.6533C3.03811 25.6951 3.0202 25.7369 2.99633 25.7787C2.93664 25.8921 2.88292 26.0115 2.8292 26.1249C2.82324 26.1368 2.81727 26.1487 2.8113 26.1607C2.75161 26.286 2.69192 26.4173 2.63821 26.5486C1.78468 28.4944 1.31315 30.6312 1.31315 32.8874C1.31315 36.6716 2.64417 40.1454 4.86454 42.8612C7.75937 46.4066 12.1583 48.6687 17.0885 48.6687C17.7749 48.6687 18.4434 48.6269 19.1059 48.5434C19.852 48.4479 20.049 47.4571 19.3984 47.081C17.7928 46.1499 16.3126 45.0099 14.9815 43.6789L14.9756 43.6729C14.6055 43.3028 14.1578 43.0044 13.6624 42.8373C11.7345 42.1688 10.0573 40.9571 8.81583 39.3814C7.40722 37.5908 6.56563 35.3346 6.56563 32.8874C6.56563 31.6579 6.7805 30.4761 7.16847 29.3778C7.15056 29.3659 7.13862 29.3539 7.12072 29.336C7.13862 29.348 7.15056 29.3599 7.16847 29.3778C7.77131 27.6708 8.8039 26.1666 10.1349 24.9908C11.9912 23.3554 14.4264 22.3586 17.0885 22.3586C19.7505 22.3586 22.1858 23.3554 24.042 24.9908C25.3731 26.1666 26.4057 27.6708 27.0085 29.3778C27.3965 30.4761 27.6113 31.6579 27.6113 32.8874C27.6113 32.8874 27.6113 32.8874 27.6113 32.8934V43.1656C24.621 42.6224 21.8277 41.2078 19.6491 39.0352C16.808 36.2001 15.2442 32.4278 15.2442 28.4169C15.2442 27.2171 15.3814 26.0413 15.662 24.8893C15.7933 24.3342 15.28 23.8388 14.7308 23.9821C13.364 24.3462 12.0867 25.0266 11.0064 25.9756C10.9288 26.0413 10.8512 26.1129 10.7795 26.1845C10.2901 26.6441 10.0096 27.2828 9.99167 27.9513C9.9857 28.1065 9.9857 28.2617 9.9857 28.4169C9.9857 31.1505 10.5229 33.8066 11.5794 36.3015C12.6 38.7129 14.0623 40.8795 15.9186 42.7418C17.7809 44.604 19.9475 46.0604 22.3589 47.081C24.8598 48.1375 27.5099 48.6747 30.2436 48.6747H32.0879C32.5236 48.6747 32.8758 48.3225 32.8758 47.8868L32.8877 32.8874Z" fill="#E2646C"/>
<path d="M12.9283 15.3096C14.382 15.3096 15.5605 14.1311 15.5605 12.6774C15.5605 11.2236 14.382 10.0452 12.9283 10.0452C11.4746 10.0452 10.2961 11.2236 10.2961 12.6774C10.2961 14.1311 11.4746 15.3096 12.9283 15.3096Z" fill="#E2646C"/>
<path d="M21.2727 15.3096C22.7264 15.3096 23.9049 14.1311 23.9049 12.6774C23.9049 11.2236 22.7264 10.0452 21.2727 10.0452C19.819 10.0452 18.6405 11.2236 18.6405 12.6774C18.6405 14.1311 19.819 15.3096 21.2727 15.3096Z" fill="#E2646C"/>
</svg>
