<svg width="18" height="25" viewBox="0 0 18 25" fill="none" xmlns="http://www.w3.org/2000/svg">
<path d="M17.293 15.6974C17.2271 14.5313 16.9148 13.3939 16.3791 12.3625C16.5624 12.0101 16.7229 11.6463 16.8547 11.2652C16.8575 11.2566 16.8633 11.2509 16.8661 11.2423C16.8747 11.2137 16.8833 11.185 16.8919 11.1564C16.9521 10.9759 17.0065 10.7954 17.0552 10.6091C17.0609 10.5834 17.0667 10.5604 17.0724 10.5347C17.1154 10.3599 17.1526 10.1823 17.1841 10.0018C17.1899 9.96453 17.1985 9.92442 17.2042 9.88717C17.2357 9.69522 17.2586 9.50326 17.2758 9.30558C17.2787 9.26547 17.2816 9.22249 17.2844 9.18238C17.2987 8.97897 17.3102 8.77556 17.3102 8.57214C17.3102 8.36873 17.2987 8.17964 17.2844 7.99914C17.167 6.30307 16.5281 4.68149 15.4451 3.36646L16.2673 2.40382C16.4937 2.13738 16.5424 1.77639 16.3963 1.46124C16.2502 1.14609 15.9436 0.94841 15.5941 0.94841H13.2648C12.6174 0.94841 11.9785 0.859595 11.3654 0.684831C10.6319 0.469957 9.86983 0.363953 9.09915 0.363953C8.32847 0.363953 7.56638 0.469957 6.83294 0.681966C6.21984 0.85673 5.58095 0.945545 4.93346 0.945545H2.60422C2.25469 0.945545 1.94814 1.14323 1.80203 1.45838C1.65591 1.77353 1.70462 2.13738 1.93095 2.40096L2.7532 3.36359C1.54991 4.83047 0.890961 6.66979 0.890961 8.57214C0.890961 9.79263 1.15454 10.9673 1.6731 12.0674C1.71321 12.1534 1.75619 12.2365 1.80776 12.3367L1.81922 12.3597C1.81635 12.3654 1.81349 12.3711 1.81062 12.3768L1.83354 12.3883L1.85646 12.4313L1.79343 12.4026L1.76765 12.4542C1.739 12.5144 1.71035 12.5717 1.67024 12.6519C1.63872 12.7178 1.61007 12.7837 1.57856 12.8524C1.12302 13.8982 0.890961 15.0069 0.890961 16.15C0.890961 17.8461 1.42098 19.5049 2.39221 20.883L2.37789 20.8973L2.73601 21.3385C4.21435 23.1492 6.36595 24.2322 8.68373 24.3468C8.76681 24.3525 8.85276 24.3525 8.93871 24.3554C8.99028 24.3554 9.04185 24.3611 9.09056 24.3611C9.09342 24.3611 9.09628 24.3611 9.09915 24.3611C9.25959 24.3611 9.42003 24.3554 9.5776 24.3468C9.62058 24.3439 9.66355 24.341 9.70653 24.3382C9.82972 24.3296 9.95292 24.3181 10.0732 24.3038C10.0962 24.3009 10.1191 24.3009 10.142 24.2981C10.1506 24.2981 10.1592 24.2952 10.1678 24.2923C10.8267 24.2064 11.4628 24.0402 12.0615 23.8081C13.1359 24.1749 14.259 24.364 15.4107 24.364H16.2931C16.8489 24.364 17.3016 23.9113 17.3016 23.3555V16.1529V16.15C17.3073 15.9896 17.3016 15.8406 17.293 15.6974Z" fill="white"/>
<path d="M16.677 16.15C16.677 14.7691 16.3074 13.477 15.6628 12.3625C15.2703 11.6835 14.7718 11.0704 14.1959 10.5432C14.1845 10.5318 14.1702 10.5232 14.1587 10.5117C14.1043 10.463 14.0498 10.4143 13.9925 10.3656C13.9753 10.3513 13.9553 10.3369 13.9381 10.3198C13.9123 10.2997 13.8865 10.2768 13.8607 10.2567C13.8407 10.2424 13.8206 10.2252 13.8034 10.2109C13.7863 10.1966 13.749 10.1679 13.749 10.1679C12.7892 9.42015 11.649 8.89872 10.3998 8.68385C10.2251 8.65233 10.0474 8.72109 9.93284 8.85575L9.09627 9.83557L8.25969 8.85575C8.14509 8.72109 7.96746 8.6552 7.7927 8.68385C6.49772 8.90732 5.31448 9.46312 4.33179 10.2567C4.13124 9.68946 4.0281 9.07922 4.04529 8.44032C4.11405 5.71286 6.36307 3.52114 9.0934 3.52114C11.881 3.51828 14.1472 5.78734 14.1472 8.57211C14.1472 8.83283 14.1272 9.08781 14.0899 9.33993C14.0642 9.50037 14.1301 9.66367 14.2561 9.76681C14.7603 10.1765 15.213 10.6378 15.6055 11.1477C15.7889 11.3855 16.1642 11.3225 16.2645 11.0389C16.5309 10.2653 16.6742 9.43734 16.6742 8.57211C16.6742 6.67549 15.978 4.94217 14.8262 3.61568C14.703 3.47244 14.7002 3.26329 14.8234 3.12004L15.7831 1.9941C15.9235 1.8308 15.8061 1.57868 15.5912 1.57868H13.262C12.56 1.57868 11.861 1.48127 11.1877 1.28931C10.523 1.09736 9.82111 0.997086 9.0934 0.997086C8.3657 0.997086 7.66377 1.10023 6.9991 1.28931C6.32582 1.48413 5.62677 1.57868 4.92485 1.57868H2.60421C2.38933 1.57868 2.27187 1.8308 2.41225 1.9941L3.37202 3.12004C3.49522 3.26329 3.49235 3.47244 3.36916 3.61568C2.21743 4.94217 1.52124 6.67549 1.52124 8.57211C1.52124 9.7267 1.77909 10.8183 2.24035 11.7981C2.2776 11.8754 2.31484 11.9528 2.35495 12.0302C2.36641 12.0559 2.38074 12.0789 2.3922 12.1046C2.40652 12.1304 2.42085 12.1591 2.43517 12.1849C2.46669 12.2422 2.4982 12.3023 2.53258 12.3596C2.49534 12.4227 2.46096 12.4886 2.42658 12.5516C2.40366 12.5917 2.3836 12.6347 2.36068 12.6776C2.34922 12.6977 2.34063 12.7178 2.32917 12.7378C2.30052 12.7922 2.27473 12.8495 2.24895 12.904C2.24608 12.9097 2.24322 12.9154 2.24035 12.9212C2.2117 12.9813 2.18305 13.0444 2.15727 13.1074C1.74757 14.0414 1.52124 15.067 1.52124 16.15C1.52124 17.9664 2.16013 19.6338 3.22591 20.9374C4.61543 22.6392 6.72692 23.725 9.0934 23.725C9.42288 23.725 9.74375 23.705 10.0618 23.6649C10.4199 23.619 10.5144 23.1434 10.2022 22.9629C9.43147 22.516 8.72095 21.9688 8.08206 21.3299L8.0792 21.327C7.90157 21.1494 7.68669 21.0062 7.4489 20.9259C6.52351 20.6051 5.71845 20.0235 5.12253 19.2671C4.44639 18.4076 4.04243 17.3247 4.04243 16.15C4.04243 15.5598 4.14557 14.9926 4.33179 14.4654C4.3232 14.4597 4.31747 14.4539 4.30887 14.4453C4.31747 14.4511 4.3232 14.4568 4.33179 14.4654C4.62116 13.646 5.1168 12.924 5.75569 12.3596C6.6467 11.5746 7.81562 11.0962 9.0934 11.0962C10.3712 11.0962 11.5401 11.5746 12.4311 12.3596C13.07 12.924 13.5656 13.646 13.855 14.4654C14.0412 14.9926 14.1444 15.5598 14.1444 16.15C14.1444 16.15 14.1444 16.15 14.1444 16.1529V21.0835C12.709 20.8228 11.3682 20.1438 10.3225 19.1009C8.95875 17.7401 8.20812 15.9294 8.20812 14.0041C8.20812 13.4283 8.27402 12.8639 8.40867 12.3109C8.4717 12.0445 8.22531 11.8067 7.96173 11.8754C7.30565 12.0502 6.69254 12.3768 6.17398 12.8324C6.13674 12.8639 6.09949 12.8982 6.06511 12.9326C5.83018 13.1532 5.69553 13.4598 5.68693 13.7807C5.68407 13.8552 5.68407 13.9296 5.68407 14.0041C5.68407 15.3163 5.94192 16.5912 6.44902 17.7888C6.93893 18.9462 7.64085 19.9862 8.53187 20.8801C9.42574 21.774 10.4657 22.473 11.6232 22.9629C12.8236 23.47 14.0957 23.7279 15.4078 23.7279H16.2931C16.5023 23.7279 16.6713 23.5589 16.6713 23.3497L16.677 16.15Z" fill="#221C35"/>
<path d="M7.09653 7.71263C7.79432 7.71263 8.35999 7.14696 8.35999 6.44917C8.35999 5.75138 7.79432 5.18571 7.09653 5.18571C6.39874 5.18571 5.83307 5.75138 5.83307 6.44917C5.83307 7.14696 6.39874 7.71263 7.09653 7.71263Z" fill="#221C35"/>
<path d="M11.1019 7.71263C11.7997 7.71263 12.3654 7.14696 12.3654 6.44917C12.3654 5.75138 11.7997 5.18571 11.1019 5.18571C10.4041 5.18571 9.83844 5.75138 9.83844 6.44917C9.83844 7.14696 10.4041 7.71263 11.1019 7.71263Z" fill="#221C35"/>
</svg>
