<svg width="329" height="2" viewBox="0 0 329 2" fill="none" xmlns="http://www.w3.org/2000/svg">
<path d="M0.207813 0.56H5.00781V1.52H0.207813V0.56ZM7.40313 0.56H12.2031V1.52H7.40313V0.56ZM14.5984 0.56H19.3984V1.52H14.5984V0.56ZM21.7938 0.56H26.5938V1.52H21.7938V0.56ZM28.9891 0.56H33.7891V1.52H28.9891V0.56ZM36.1844 0.56H40.9844V1.52H36.1844V0.56ZM43.3797 0.56H48.1797V1.52H43.3797V0.56ZM50.575 0.56H55.375V1.52H50.575V0.56ZM57.7703 0.56H62.5703V1.52H57.7703V0.56ZM64.9656 0.56H69.7656V1.52H64.9656V0.56ZM72.1609 0.56H76.9609V1.52H72.1609V0.56ZM79.3563 0.56H84.1562V1.52H79.3563V0.56ZM86.5516 0.56H91.3516V1.52H86.5516V0.56ZM93.7469 0.56H98.5469V1.52H93.7469V0.56ZM100.942 0.56H105.742V1.52H100.942V0.56ZM108.138 0.56H112.938V1.52H108.138V0.56ZM115.333 0.56H120.133V1.52H115.333V0.56ZM122.528 0.56H127.328V1.52H122.528V0.56ZM129.723 0.56H134.523V1.52H129.723V0.56ZM136.919 0.56H141.719V1.52H136.919V0.56ZM144.114 0.56H148.914V1.52H144.114V0.56ZM151.309 0.56H156.109V1.52H151.309V0.56ZM158.505 0.56H163.305V1.52H158.505V0.56ZM165.7 0.56H170.5V1.52H165.7V0.56ZM172.895 0.56H177.695V1.52H172.895V0.56ZM180.091 0.56H184.891V1.52H180.091V0.56ZM187.286 0.56H192.086V1.52H187.286V0.56ZM194.481 0.56H199.281V1.52H194.481V0.56ZM201.677 0.56H206.477V1.52H201.677V0.56ZM208.872 0.56H213.672V1.52H208.872V0.56ZM216.067 0.56H220.867V1.52H216.067V0.56ZM223.263 0.56H228.062V1.52H223.263V0.56ZM230.458 0.56H235.258V1.52H230.458V0.56ZM237.653 0.56H242.453V1.52H237.653V0.56ZM244.848 0.56H249.648V1.52H244.848V0.56ZM252.044 0.56H256.844V1.52H252.044V0.56ZM259.239 0.56H264.039V1.52H259.239V0.56ZM266.434 0.56H271.234V1.52H266.434V0.56ZM273.63 0.56H278.43V1.52H273.63V0.56ZM280.825 0.56H285.625V1.52H280.825V0.56ZM288.02 0.56H292.82V1.52H288.02V0.56ZM295.216 0.56H300.016V1.52H295.216V0.56ZM302.411 0.56H307.211V1.52H302.411V0.56ZM309.606 0.56H314.406V1.52H309.606V0.56ZM316.802 0.56H321.602V1.52H316.802V0.56ZM323.997 0.56H328.797V1.52H323.997V0.56Z" fill="white"/>
</svg>
