<svg width="33" height="14" viewBox="0 0 33 14" fill="none" xmlns="http://www.w3.org/2000/svg">
<g clip-path="url(#clip0)">
<path d="M30.541 12.1591H1.66011C1.28817 12.1591 0.988007 11.8589 0.988007 11.487V1.57506C0.988007 1.20312 1.28817 0.902954 1.66011 0.902954H30.541C30.913 0.902954 31.2131 1.20312 31.2131 1.57506V11.487C31.2131 11.8589 30.913 12.1591 30.541 12.1591Z" fill="#F35A69"/>
<path d="M30.6976 0.915992C30.9978 0.98777 31.2131 1.25531 31.2131 1.57505V11.487C31.2131 11.8589 30.913 12.1591 30.541 12.1591H1.66013C1.60793 12.1591 1.55572 12.1525 1.50352 12.1395C1.20336 12.0677 0.988025 11.8002 0.988025 11.4804V1.56852C0.988025 1.19658 1.28819 0.896416 1.66013 0.896416H30.541C30.5932 0.902942 30.6454 0.909467 30.6976 0.915992ZM30.8999 0.0546546C30.7825 0.0285535 30.665 0.0155029 30.541 0.0155029H1.66013C1.24251 0.0155029 0.850994 0.178635 0.557356 0.472273C0.263718 0.765911 0.100586 1.15743 0.100586 1.57505V11.487C0.100586 12.2113 0.596508 12.8377 1.30124 13.0073C1.41869 13.0334 1.53615 13.0465 1.66013 13.0465H30.541C30.9587 13.0465 31.3502 12.8834 31.6438 12.5897C31.9375 12.2961 32.1006 11.9046 32.1006 11.487V1.57505C32.1006 0.850739 31.6047 0.224312 30.8999 0.0546546Z" fill="#221C35"/>
<path d="M18.2278 6.73654V10.2341C18.2278 10.3385 18.143 10.4233 18.0451 10.4233H16.9097C16.8053 10.4233 16.727 10.3385 16.727 10.2341V10.0905C16.3812 10.3776 15.9179 10.5538 15.4089 10.5538C14.2931 10.5538 13.4252 9.75121 13.4252 8.69412C13.4252 7.6305 14.2996 6.82789 15.4089 6.82789C15.8787 6.82789 16.3029 6.97145 16.6422 7.22593V6.75611C16.6422 6.30587 16.3616 6.01876 15.9244 6.01876C15.5981 6.01876 15.3567 6.16884 15.2588 6.41027C15.2262 6.4951 15.1479 6.5473 15.0631 6.5473H13.8754C13.7384 6.5473 13.6275 6.41027 13.6666 6.27324C13.9276 5.34013 14.7694 4.6876 15.944 4.6876C17.2556 4.68107 18.2278 5.51631 18.2278 6.73654ZM16.6357 8.69412C16.6357 8.33523 16.2898 8.04812 15.8396 8.04812C15.4024 8.04812 15.05 8.33523 15.05 8.69412C15.05 9.04648 15.3958 9.3336 15.8396 9.3336C16.2833 9.3336 16.6357 9.04648 16.6357 8.69412Z" fill="white"/>
<path d="M25.5883 8.71372H26.6454C26.7694 8.71372 26.8803 8.79202 26.9195 8.90948C27.0043 9.11829 27.2197 9.27489 27.4741 9.27489C27.7808 9.27489 28.0223 9.08566 28.0223 8.84422C28.0223 8.49186 27.5851 8.32873 27.1283 8.23085C26.2865 8.03509 25.373 7.60442 25.373 6.44944C25.373 5.29447 26.3453 4.68109 27.448 4.68109C28.5051 4.68109 29.3273 5.28794 29.51 6.1036C29.5492 6.27326 29.4187 6.43639 29.2425 6.43639H28.1593C28.0549 6.43639 27.957 6.37767 27.9244 6.27979C27.8591 6.09055 27.6699 5.947 27.435 5.947C27.174 5.947 26.9652 6.12318 26.9652 6.33199C26.9652 6.65173 27.3502 6.82791 27.8918 6.95842C28.7335 7.16723 29.6144 7.55874 29.6144 8.69414C29.6144 9.86869 28.6422 10.5408 27.4611 10.5408C26.3518 10.5408 25.5035 9.89479 25.3208 9.03998C25.2882 8.87685 25.4121 8.71372 25.5883 8.71372Z" fill="white"/>
<path d="M25.0402 7.61745C25.0402 9.28792 23.8918 10.5538 22.3583 10.5538C21.6666 10.5538 21.0924 10.2667 20.6748 9.79689V10.1427C20.6748 10.2993 20.5508 10.4233 20.3942 10.4233H19.3567C19.2066 10.4233 19.0761 10.2993 19.0761 10.1427V2.78874C19.0761 2.63213 19.2001 2.50815 19.3567 2.50815H20.3942C20.5443 2.50815 20.6748 2.63213 20.6748 2.78874V5.44453C21.0924 4.97471 21.6666 4.68759 22.3583 4.68759C23.8983 4.68107 25.0402 5.94697 25.0402 7.61745ZM23.4024 7.61745C23.4024 6.82789 22.8216 6.23409 22.0386 6.23409C21.249 6.23409 20.6748 6.82789 20.6748 7.61745C20.6748 8.40701 21.2555 9.00081 22.0386 9.00081C22.8281 9.00081 23.4024 8.40701 23.4024 7.61745Z" fill="white"/>
<path d="M8.90317 5.99918L8.53123 7.25203H9.61443C9.74493 7.25203 9.84934 7.35644 9.84934 7.48694V8.40048C9.84934 8.53099 9.74493 8.63539 9.61443 8.63539H8.11361L7.63727 10.2471C7.60464 10.345 7.51329 10.4168 7.40888 10.4168H6.43009C6.27348 10.4168 6.16255 10.2667 6.2017 10.1166L6.6389 8.63539H5.20986L4.73352 10.2471C4.70089 10.345 4.60954 10.4168 4.50513 10.4168H3.50024C3.34363 10.4168 3.2327 10.2667 3.27185 10.1166L3.70905 8.63539H2.82161C2.69111 8.63539 2.5867 8.53099 2.5867 8.40048V7.48694C2.5867 7.35644 2.69111 7.25203 2.82161 7.25203H4.12667L4.49208 5.99918H3.42194C3.29143 5.99918 3.18703 5.89477 3.18703 5.76427V4.85072C3.18703 4.72022 3.29143 4.61581 3.42194 4.61581H4.9097L5.38605 3.00407C5.41867 2.90619 5.51003 2.83441 5.61443 2.83441H6.60627C6.76288 2.83441 6.87381 2.98449 6.83466 3.13457L6.39746 4.61581H7.83955L8.3159 3.00407C8.34852 2.90619 8.43988 2.83441 8.54428 2.83441H9.53612C9.69273 2.83441 9.80366 2.98449 9.76451 3.13457L9.32731 4.61581H10.2148C10.3453 4.61581 10.4497 4.72022 10.4497 4.85072V5.76427C10.4497 5.89477 10.3453 5.99918 10.2148 5.99918H8.90317ZM7.41541 5.99918H5.98637L5.61443 7.25203H7.05652L7.41541 5.99918Z" fill="#221C35"/>
<path d="M11.572 2.50815H12.603C12.7596 2.50815 12.8901 2.63865 12.8901 2.79526V10.1362C12.8901 10.2928 12.7596 10.4233 12.603 10.4233H11.572C11.4154 10.4233 11.2849 10.2928 11.2849 10.1362V2.79526C11.2849 2.63213 11.4154 2.50815 11.572 2.50815Z" fill="white"/>
</g>
<defs>
<clipPath id="clip0">
<rect x="0.100586" y="0.0155029" width="32" height="13.031" fill="white"/>
</clipPath>
</defs>
</svg>
