<svg width="111" height="50" viewBox="0 0 111 50" fill="none" xmlns="http://www.w3.org/2000/svg">
<path d="M12.9898 15.3631C14.4368 15.3631 15.6099 14.19 15.6099 12.743C15.6099 11.2959 14.4368 10.1228 12.9898 10.1228C11.5427 10.1228 10.3696 11.2959 10.3696 12.743C10.3696 14.19 11.5427 15.3631 12.9898 15.3631Z" fill="#221C35"/>
<path d="M21.2992 15.3631C22.7463 15.3631 23.9194 14.19 23.9194 12.743C23.9194 11.2959 22.7463 10.1228 21.2992 10.1228C19.8522 10.1228 18.6791 11.2959 18.6791 12.743C18.6791 14.19 19.8522 15.3631 21.2992 15.3631Z" fill="#221C35"/>
<path d="M32.8654 32.8654C32.8654 30.001 32.1006 27.3167 30.7609 25.005C29.9443 23.5937 28.9154 22.3231 27.7164 21.2326C27.7164 21.2326 27.7164 21.2326 27.7164 21.2302C27.6917 21.208 27.6646 21.1857 27.6399 21.1635C27.5264 21.0624 27.4105 20.9612 27.2945 20.8625C27.2575 20.8305 27.2205 20.8009 27.1835 20.7688C27.1292 20.7244 27.0774 20.68 27.0231 20.6356V20.638V20.6356C26.9836 20.6035 26.9417 20.5714 26.9022 20.5393C26.8652 20.5097 26.7912 20.453 26.7912 20.453C24.8026 18.9036 22.4317 17.823 19.8436 17.3739C19.4809 17.3123 19.1133 17.448 18.8765 17.7268L17.142 19.7597L15.4076 17.7268C15.1683 17.448 14.8007 17.3098 14.4405 17.3739C11.7512 17.8402 9.29638 18.9875 7.26095 20.6356C6.84399 19.4612 6.63182 18.1931 6.66389 16.8706C6.80946 11.2134 11.4749 6.66636 17.1346 6.66142C22.9152 6.65895 27.6226 11.3614 27.6226 17.142C27.6226 17.6823 27.5807 18.2153 27.5017 18.7334C27.4499 19.0689 27.5832 19.4044 27.8472 19.6166C28.8957 20.4653 29.8332 21.4251 30.6449 22.4835C31.0273 22.9794 31.807 22.8486 32.0093 22.2565C32.5619 20.6528 32.8605 18.9332 32.8605 17.142C32.8605 13.2093 31.4147 9.61464 29.0289 6.85633C28.7748 6.56273 28.7699 6.12604 29.0215 5.82998L31.0125 3.49356C31.3037 3.15308 31.0619 2.63004 30.6129 2.63004H25.7821C24.3265 2.63004 22.8782 2.4302 21.4793 2.03051C20.1002 1.63576 18.6421 1.42358 17.1371 1.42358C15.6296 1.42358 14.174 1.63576 12.7948 2.03051C11.396 2.43266 9.94771 2.63004 8.49207 2.63004H3.67119C3.22463 2.63004 2.98284 3.15308 3.2715 3.49356L5.26253 5.82998C5.51665 6.12604 5.51171 6.56273 5.25512 6.85633C2.86689 9.61218 1.42358 13.2093 1.42358 17.142C1.42358 19.5377 1.96143 21.805 2.9187 23.8355C2.99518 23.9983 3.07413 24.1587 3.15802 24.3191C3.18515 24.3709 3.20983 24.4202 3.23697 24.472C3.26657 24.5288 3.29618 24.5831 3.32578 24.6398C3.3924 24.7607 3.45901 24.8816 3.52809 25C3.45161 25.1308 3.3776 25.264 3.30605 25.3997C3.25917 25.4861 3.21476 25.5724 3.17035 25.6612C3.14814 25.7032 3.12594 25.7451 3.10374 25.7895C3.04699 25.903 2.99025 26.019 2.93597 26.1349C2.93104 26.1473 2.92363 26.1596 2.9187 26.1719C2.85949 26.3002 2.80028 26.4285 2.74353 26.5568C1.89729 28.4862 1.42605 30.6203 1.42605 32.8629C1.42605 36.6303 2.7534 40.0893 4.964 42.7983C4.964 42.7983 4.96399 42.7983 4.96646 42.7958C4.96646 42.7958 4.96647 42.7958 4.964 42.7983C7.84567 46.3264 12.2274 48.5814 17.1371 48.5839C17.818 48.5839 18.4891 48.5419 19.1479 48.4556C19.8905 48.3593 20.0878 47.3774 19.439 46.9999C17.8402 46.0698 16.3673 44.9373 15.0424 43.61C15.04 43.6075 15.0375 43.6051 15.0375 43.6051C14.6674 43.235 14.2258 42.9414 13.7324 42.7712C11.8104 42.1075 10.1402 40.8986 8.90656 39.3294C7.5052 37.5481 6.66882 35.3005 6.66882 32.8629C6.66882 31.6392 6.88099 30.4624 7.26834 29.3694C7.25107 29.3571 7.23627 29.3423 7.22146 29.3299C7.23627 29.3423 7.25354 29.3571 7.26834 29.3694C7.87034 27.672 8.89916 26.1719 10.224 25.0025C12.072 23.3717 14.4972 22.3823 17.147 22.3823C19.7992 22.3823 22.222 23.3717 24.0699 25.0025C25.3948 26.1719 26.4236 27.6695 27.0256 29.3694C27.4129 30.4624 27.6251 31.6392 27.6251 32.8629V32.8654V43.0944C24.6447 42.5565 21.8667 41.1453 19.6956 38.9791C16.8657 36.1566 15.3089 32.3991 15.3089 28.4047C15.3089 27.2131 15.4495 26.0362 15.7234 24.8939C15.8566 24.3413 15.3434 23.8454 14.7933 23.9909C13.4314 24.3536 12.1583 25.0296 11.0826 25.977C11.0061 26.0436 10.9297 26.1127 10.8556 26.1843C10.3721 26.6407 10.0883 27.2748 10.0735 27.9409C10.0711 28.0939 10.0686 28.2493 10.0686 28.4023C10.0686 31.126 10.6015 33.7684 11.655 36.2578C12.6715 38.6608 14.1247 40.8171 15.9775 42.67C17.8304 44.5229 19.9867 45.976 22.3897 46.9925C24.8791 48.046 27.5215 48.5789 30.2453 48.5789H32.0784C32.5126 48.5789 32.8654 48.2261 32.8654 47.7919V32.8654Z" fill="#221C35"/>
<path d="M37.7432 17.1444H41.5821C41.8338 17.1444 42.0459 17.3245 42.0904 17.5737C42.3025 18.7407 43.3708 19.6165 44.708 19.6165C46.1439 19.6165 47.2098 18.7308 47.2098 17.6033C47.2098 16.1699 45.4704 15.4051 43.4868 14.8869C40.4349 14.1246 37.5063 12.2915 37.5063 8.29463C37.5063 4.72461 40.5582 2.03784 44.5871 2.03784C48.4878 2.03784 51.4311 4.50009 51.7346 7.87027C51.7617 8.17867 51.5224 8.44759 51.214 8.44759H47.3775C47.1234 8.44759 46.9162 8.26255 46.8668 8.01337C46.6694 6.98455 45.7714 6.24933 44.5871 6.24933C43.3067 6.24933 42.3593 7.04376 42.3593 8.11205C42.3593 9.4542 43.7631 10.187 45.8084 10.7371C49.0133 11.5908 52.0652 13.1476 52.0652 17.2974C52.0652 21.0204 48.8924 23.828 44.6488 23.828C40.6224 23.828 37.531 21.2449 37.2275 17.7217C37.1954 17.4133 37.4323 17.1444 37.7432 17.1444Z" fill="white"/>
<path d="M66.6709 13.2389V22.9472C66.6709 23.231 66.4415 23.4629 66.1553 23.4629H62.9726C62.6889 23.4629 62.457 23.2334 62.457 22.9472V22.5476C61.48 23.342 60.1995 23.828 58.7636 23.828C55.65 23.828 53.21 21.6002 53.21 18.6691C53.21 15.7085 55.6525 13.4806 58.7636 13.4806C60.0761 13.4806 61.2653 13.8779 62.2127 14.5785V13.266C62.2127 12.0151 61.4183 11.2207 60.1995 11.2207C59.294 11.2207 58.6082 11.6377 58.3466 12.3038C58.2554 12.5332 58.0407 12.6862 57.794 12.6862H54.4732C54.0784 12.6862 53.7873 12.3087 53.8934 11.9288C54.6237 9.33577 56.9724 7.52979 60.2612 7.52979C63.9546 7.52979 66.6709 9.84894 66.6709 13.2389ZM62.2152 18.6691C62.2152 17.6625 61.2382 16.8681 59.9873 16.8681C58.7661 16.8681 57.7891 17.6625 57.7891 18.6691C57.7891 19.6461 58.7661 20.4406 59.9873 20.4406C61.2382 20.4406 62.2152 19.6461 62.2152 18.6691Z" fill="white"/>
<path d="M96.5091 13.2389V22.9472C96.5091 23.231 96.2796 23.4629 95.9934 23.4629H92.8108C92.527 23.4629 92.2951 23.2334 92.2951 22.9472V22.5476C91.3181 23.342 90.0376 23.828 88.6017 23.828C85.4881 23.828 83.0481 21.6002 83.0481 18.6691C83.0481 15.7085 85.4906 13.4806 88.6017 13.4806C89.9143 13.4806 91.1035 13.8779 92.0509 14.5785V13.266C92.0509 12.0151 91.2564 11.2207 90.0376 11.2207C89.1322 11.2207 88.4463 11.6377 88.1848 12.3038C88.0935 12.5332 87.8789 12.6862 87.6321 12.6862H84.3113C83.9165 12.6862 83.6254 12.3087 83.7315 11.9288C84.4618 9.33577 86.8106 7.52979 90.0993 7.52979C93.7927 7.52979 96.5091 9.84894 96.5091 13.2389ZM92.0533 18.6691C92.0533 17.6625 91.0763 16.8681 89.8254 16.8681C88.6042 16.8681 87.6272 17.6625 87.6272 18.6691C87.6272 19.6461 88.6042 20.4406 89.8254 20.4406C91.0763 20.4406 92.0533 19.6461 92.0533 18.6691Z" fill="white"/>
<path d="M63.7029 37.9947V47.7031C63.7029 47.9868 63.4735 48.2187 63.1873 48.2187H60.0046C59.7209 48.2187 59.489 47.9893 59.489 47.7031V47.3034C58.512 48.0978 57.2315 48.5839 55.7956 48.5839C52.682 48.5839 50.2419 46.356 50.2419 43.425C50.2419 40.4644 52.6845 38.2365 55.7956 38.2365C57.1081 38.2365 58.2973 38.6337 59.2447 39.3344V38.0219C59.2447 36.771 58.4503 35.9766 57.2315 35.9766C56.326 35.9766 55.6401 36.3935 55.3786 37.0597C55.2873 37.2891 55.0727 37.4421 54.826 37.4421H51.5052C51.1104 37.4421 50.8193 37.0646 50.9254 36.6846C51.6556 34.0916 54.0044 32.2856 57.2932 32.2856C60.9865 32.2881 63.7029 34.6073 63.7029 37.9947ZM59.2472 43.4275C59.2472 42.4208 58.2702 41.6264 57.0193 41.6264C55.7981 41.6264 54.821 42.4208 54.821 43.4275C54.821 44.4045 55.7981 45.1989 57.0193 45.1989C58.2702 45.1989 59.2472 44.4045 59.2472 43.4275Z" fill="white"/>
<path d="M98.8505 18.7308H101.796C102.144 18.7308 102.443 18.9504 102.569 19.2736C102.8 19.8633 103.402 20.2876 104.113 20.2876C104.967 20.2876 105.64 19.7695 105.64 19.096C105.64 18.119 104.419 17.6625 103.138 17.3862C100.79 16.836 98.2238 15.6469 98.2238 12.442C98.2238 9.2371 100.94 7.52734 104.022 7.52734C106.982 7.52734 109.279 9.2149 109.78 11.4773C109.886 11.9559 109.526 12.4124 109.037 12.4124H106.01C105.727 12.4124 105.45 12.252 105.356 11.9831C105.171 11.4551 104.651 11.0678 103.995 11.0678C103.262 11.0678 102.682 11.5563 102.682 12.136C102.682 13.0218 103.75 13.5103 105.275 13.8754C107.624 14.4552 110.096 15.5531 110.096 18.6988C110.096 21.9653 107.38 23.8256 104.083 23.8256C100.972 23.8256 98.6038 22.027 98.1079 19.661C98.0067 19.1848 98.362 18.7308 98.8505 18.7308Z" fill="white"/>
<path d="M84.2866 43.4891H87.2325C87.5803 43.4891 87.8789 43.7087 88.0047 44.0319C88.2366 44.6216 88.8386 45.0459 89.5491 45.0459C90.4028 45.0459 91.0763 44.5278 91.0763 43.8543C91.0763 42.8773 89.8551 42.4208 88.5746 42.1445C86.2259 41.5943 83.66 40.4052 83.66 37.2003C83.66 33.9954 86.3763 32.2856 89.4579 32.2856C92.4185 32.2856 94.7154 33.9732 95.2163 36.2356C95.3224 36.7142 94.9622 37.1707 94.4737 37.1707H91.4439C91.1602 37.1707 90.8839 37.0103 90.7901 36.7414C90.6051 36.2134 90.0845 35.8261 89.4283 35.8261C88.6955 35.8261 88.1157 36.3146 88.1157 36.8943C88.1157 37.7801 89.184 38.2686 90.7087 38.6337C93.0575 39.2135 95.5296 40.3114 95.5296 43.4571C95.5296 46.7236 92.8132 48.5839 89.5171 48.5839C86.4059 48.5839 84.0375 46.7853 83.5416 44.4193C83.4429 43.9431 83.7981 43.4891 84.2866 43.4891Z" fill="white"/>
<path d="M49.6499 44.3599V47.6215C49.6499 47.9521 49.3834 48.2186 49.0528 48.2186H38.8609C38.5303 48.2186 38.2638 47.9521 38.2638 47.6215V27.7558C38.2638 27.4251 38.5303 27.1587 38.8609 27.1587H42.3988C42.7294 27.1587 42.9959 27.4251 42.9959 27.7558V43.7629H49.0528C49.3809 43.7629 49.6499 44.0318 49.6499 44.3599Z" fill="white"/>
<path d="M82.7546 40.4371C82.7546 45.0754 79.5497 48.5862 75.2469 48.5862C73.325 48.5862 71.7065 47.7918 70.5469 46.4792V47.4414C70.5469 47.8707 70.199 48.2186 69.7698 48.2186H66.8683C66.4391 48.2186 66.0912 47.8707 66.0912 47.4414V27.0255C66.0912 26.5937 66.4391 26.2458 66.8708 26.2458H69.7673C70.199 26.2458 70.5469 26.5937 70.5469 27.0255V34.395C71.7065 33.0824 73.325 32.288 75.2469 32.288C79.5497 32.288 82.7546 35.7988 82.7546 40.4371ZM78.1755 40.4371C78.1755 38.2388 76.5594 36.5908 74.3612 36.5908C72.1629 36.5908 70.5469 38.2388 70.5469 40.4371C70.5469 42.6329 72.1629 44.281 74.3612 44.281C76.5594 44.281 78.1755 42.6329 78.1755 40.4371Z" fill="white"/>
<path d="M77.4896 8.62281C77.3959 12.2496 76.6014 16.2958 75.242 19.4513C73.8826 16.2958 73.0882 12.2471 72.9944 8.62281C72.9845 8.22066 72.6613 7.89746 72.2592 7.89746H69.0124C68.6003 7.89746 68.2599 8.23793 68.2697 8.64995C68.3857 13.7817 69.7007 18.6199 71.9384 22.9054C72.1186 23.2508 72.4812 23.4629 72.871 23.4629H77.613C78.0028 23.4629 78.363 23.2508 78.5456 22.9054C80.7833 18.6223 82.0959 13.7817 82.2143 8.64995C82.2242 8.23793 81.8837 7.89746 81.4717 7.89746H78.2248C77.8227 7.89746 77.4995 8.22066 77.4896 8.62281Z" fill="white"/>
<path d="M34.1709 31.9446C34.0337 29.5153 33.3831 27.1458 32.2669 24.997C32.6489 24.2629 32.9832 23.5048 33.2577 22.711C33.2637 22.6931 33.2756 22.6812 33.2816 22.6632C33.2995 22.6036 33.3174 22.5439 33.3353 22.4842C33.4607 22.1082 33.5741 21.7321 33.6755 21.3442C33.6875 21.2904 33.6994 21.2427 33.7113 21.189C33.8009 20.8249 33.8785 20.4548 33.9441 20.0788C33.9561 20.0012 33.974 19.9176 33.9859 19.84C34.0516 19.4401 34.0993 19.0402 34.1351 18.6284C34.1411 18.5448 34.1471 18.4553 34.153 18.3717C34.1829 17.948 34.2068 17.5242 34.2068 17.1004C34.2068 16.6766 34.1829 16.2827 34.153 15.9066C33.9083 12.3732 32.5773 8.99487 30.3211 6.25522L32.0341 4.24973C32.5057 3.69464 32.6071 2.94258 32.3027 2.28602C31.9983 1.62946 31.3597 1.21762 30.6315 1.21762H25.7789C24.43 1.21762 23.099 1.03259 21.8217 0.668497C20.2937 0.220843 18.706 0 17.1004 0C15.4948 0 13.9071 0.220843 12.3791 0.662528C11.1018 1.02662 9.7708 1.21165 8.42187 1.21165H3.5693C2.84111 1.21165 2.20246 1.62349 1.89805 2.28005C1.59365 2.93661 1.69512 3.69464 2.16665 4.24376L3.87967 6.24925C1.37281 9.30524 0 13.1372 0 17.1004C0 19.6431 0.549123 22.0902 1.62946 24.3822C1.71302 24.5613 1.80255 24.7344 1.90999 24.9433L1.93387 24.991C1.9279 25.003 1.92193 25.0149 1.91596 25.0269L1.96371 25.0507L2.01146 25.1403L1.88015 25.0806L1.82643 25.188C1.76674 25.3134 1.70705 25.4327 1.62349 25.5999C1.55784 25.7371 1.49815 25.8744 1.43249 26.0177C0.483467 28.1963 0 30.5061 0 32.8877C0 36.4212 1.10421 39.877 3.12761 42.748L3.09777 42.7778L3.84386 43.697C6.92372 47.4693 11.4062 49.7254 16.2349 49.9642C16.408 49.9761 16.5871 49.9761 16.7661 49.9821C16.8736 49.9821 16.981 49.994 17.0825 49.994C17.0885 49.994 17.0944 49.994 17.1004 49.994C17.4346 49.994 17.7689 49.9821 18.0972 49.9642C18.1867 49.9582 18.2762 49.9523 18.3658 49.9463C18.6224 49.9284 18.8791 49.9045 19.1298 49.8747C19.1775 49.8687 19.2253 49.8687 19.273 49.8627C19.2909 49.8627 19.3088 49.8568 19.3267 49.8508C20.6995 49.6717 22.0246 49.3255 23.2721 48.8421C25.5103 49.6061 27.8501 50 30.2495 50H32.0879C33.2458 50 34.1888 49.0569 34.1888 47.899V32.8936V32.8877C34.2008 32.5534 34.1888 32.243 34.1709 31.9446Z" fill="#F9FAFB"/>
<path d="M32.8877 32.8874C32.8877 30.0105 32.1177 27.3186 30.7747 24.9968C29.957 23.5822 28.9185 22.3049 27.7187 21.2066C27.6949 21.1828 27.665 21.1649 27.6412 21.141C27.5277 21.0395 27.4143 20.938 27.295 20.8366C27.2592 20.8067 27.2174 20.7769 27.1816 20.7411C27.1278 20.6993 27.0741 20.6515 27.0204 20.6098C26.9786 20.5799 26.9368 20.5441 26.901 20.5143C26.8652 20.4844 26.7876 20.4247 26.7876 20.4247C24.7881 18.8669 22.4125 17.7806 19.8102 17.3329C19.4461 17.2673 19.076 17.4105 18.8373 17.6911L17.0944 19.7324L15.3515 17.6911C15.1128 17.4105 14.7427 17.2732 14.3786 17.3329C11.6808 17.7985 9.2157 18.9564 7.16843 20.6098C6.75062 19.428 6.53574 18.1566 6.57156 16.8256C6.71481 11.1434 11.4003 6.57729 17.0884 6.57729C22.896 6.57132 27.6173 11.2986 27.6173 17.1002C27.6173 17.6433 27.5755 18.1745 27.4979 18.6998C27.4442 19.034 27.5815 19.3742 27.8441 19.5891C28.8946 20.4426 29.8376 21.4036 30.6554 22.466C31.0374 22.9614 31.8193 22.8301 32.0282 22.2392C32.5833 20.6277 32.8817 18.9027 32.8817 17.1002C32.8817 13.1489 31.4313 9.53778 29.0319 6.77426C28.7752 6.47582 28.7692 6.04011 29.0259 5.74167L31.0254 3.39596C31.3179 3.05575 31.0732 2.5305 30.6255 2.5305H25.7729C24.3106 2.5305 22.8542 2.32756 21.4516 1.92766C20.0668 1.52775 18.6045 1.31885 17.0884 1.31885C15.5724 1.31885 14.1101 1.53372 12.7253 1.92766C11.3227 2.33353 9.86629 2.5305 8.40395 2.5305H3.56929C3.12163 2.5305 2.87692 3.05575 3.16938 3.39596L5.16891 5.74167C5.42556 6.04011 5.41959 6.47582 5.16294 6.77426C2.76351 9.53778 1.31311 13.1489 1.31311 17.1002C1.31311 19.5055 1.8503 21.7796 2.81126 23.8209C2.88885 23.9821 2.96645 24.1432 3.05001 24.3044C3.07388 24.3581 3.10373 24.4059 3.1276 24.4596C3.15745 24.5133 3.18729 24.573 3.21713 24.6267C3.28279 24.7461 3.34845 24.8714 3.42007 24.9908C3.34248 25.1221 3.27085 25.2594 3.19923 25.3907C3.15148 25.4743 3.1097 25.5638 3.06195 25.6533C3.03807 25.6951 3.02017 25.7369 2.99629 25.7787C2.9366 25.8921 2.88288 26.0115 2.82917 26.1249C2.8232 26.1368 2.81723 26.1487 2.81126 26.1607C2.75157 26.286 2.69189 26.4173 2.63817 26.5486C1.78464 28.4944 1.31311 30.6312 1.31311 32.8874C1.31311 36.6716 2.64414 40.1454 4.8645 42.8612C7.75933 46.4066 12.1583 48.6687 17.0884 48.6687C17.7748 48.6687 18.4433 48.6269 19.1059 48.5434C19.852 48.4479 20.0489 47.4571 19.3983 47.081C17.7928 46.1499 16.3125 45.0099 14.9815 43.6789L14.9755 43.6729C14.6055 43.3028 14.1578 43.0044 13.6624 42.8373C11.7345 42.1688 10.0573 40.9571 8.8158 39.3814C7.40718 37.5908 6.56559 35.3346 6.56559 32.8874C6.56559 31.6579 6.78046 30.4761 7.16843 29.3778C7.15052 29.3659 7.13859 29.3539 7.12068 29.336C7.13859 29.348 7.15052 29.3599 7.16843 29.3778C7.77127 27.6708 8.80386 26.1666 10.1349 24.9908C11.9912 23.3554 14.4264 22.3586 17.0884 22.3586C19.7505 22.3586 22.1857 23.3554 24.042 24.9908C25.373 26.1666 26.4056 27.6708 27.0085 29.3778C27.3964 30.4761 27.6113 31.6579 27.6113 32.8874C27.6113 32.8874 27.6113 32.8874 27.6113 32.8934V43.1656C24.621 42.6224 21.8276 41.2078 19.649 39.0352C16.8079 36.2001 15.2441 32.4278 15.2441 28.4169C15.2441 27.2171 15.3814 26.0413 15.6619 24.8893C15.7932 24.3342 15.2799 23.8388 14.7308 23.9821C13.364 24.3462 12.0867 25.0266 11.0063 25.9756C10.9287 26.0413 10.8511 26.1129 10.7795 26.1845C10.2901 26.6441 10.0095 27.2828 9.99164 27.9513C9.98567 28.1065 9.98567 28.2617 9.98567 28.4169C9.98567 31.1505 10.5229 33.8066 11.5793 36.3015C12.6 38.7129 14.0623 40.8795 15.9186 42.7418C17.7808 44.604 19.9475 46.0604 22.3588 47.081C24.8597 48.1375 27.5098 48.6747 30.2435 48.6747H32.0878C32.5236 48.6747 32.8757 48.3225 32.8757 47.8868L32.8877 32.8874Z" fill="#221C35"/>
<path d="M12.9283 15.3096C14.3821 15.3096 15.5606 14.1311 15.5606 12.6774C15.5606 11.2236 14.3821 10.0452 12.9283 10.0452C11.4746 10.0452 10.2961 11.2236 10.2961 12.6774C10.2961 14.1311 11.4746 15.3096 12.9283 15.3096Z" fill="#221C35"/>
<path d="M21.2727 15.3096C22.7264 15.3096 23.9049 14.1311 23.9049 12.6774C23.9049 11.2236 22.7264 10.0452 21.2727 10.0452C19.819 10.0452 18.6405 11.2236 18.6405 12.6774C18.6405 14.1311 19.819 15.3096 21.2727 15.3096Z" fill="#221C35"/>
</svg>
