<svg width="18" height="18" viewBox="0 0 18 18" fill="none" xmlns="http://www.w3.org/2000/svg">
<path d="M8.99999 11.9166C8.22644 11.9166 7.48457 11.6093 6.93759 11.0624C6.39061 10.5154 6.08332 9.77351 6.08332 8.99996C6.08332 8.22641 6.39061 7.48455 6.93759 6.93756C7.48457 6.39058 8.22644 6.08329 8.99999 6.08329C9.77354 6.08329 10.5154 6.39058 11.0624 6.93756C11.6094 7.48455 11.9167 8.22641 11.9167 8.99996C11.9167 9.77351 11.6094 10.5154 11.0624 11.0624C10.5154 11.6093 9.77354 11.9166 8.99999 11.9166ZM15.1917 9.80829C15.225 9.54163 15.25 9.27496 15.25 8.99996C15.25 8.72496 15.225 8.44996 15.1917 8.16663L16.95 6.80829C17.1083 6.68329 17.15 6.45829 17.05 6.27496L15.3833 3.39163C15.2833 3.20829 15.0583 3.13329 14.875 3.20829L12.8 4.04163C12.3667 3.71663 11.9167 3.43329 11.3917 3.22496L11.0833 1.01663C11.05 0.816626 10.875 0.666626 10.6667 0.666626H7.33332C7.12499 0.666626 6.94999 0.816626 6.91665 1.01663L6.60832 3.22496C6.08332 3.43329 5.63332 3.71663 5.19999 4.04163L3.12499 3.20829C2.94165 3.13329 2.71666 3.20829 2.61666 3.39163L0.949988 6.27496C0.841655 6.45829 0.891655 6.68329 1.04999 6.80829L2.80832 8.16663C2.77499 8.44996 2.74999 8.72496 2.74999 8.99996C2.74999 9.27496 2.77499 9.54163 2.80832 9.80829L1.04999 11.1916C0.891655 11.3166 0.841655 11.5416 0.949988 11.725L2.61666 14.6083C2.71666 14.7916 2.94165 14.8583 3.12499 14.7916L5.19999 13.95C5.63332 14.2833 6.08332 14.5666 6.60832 14.775L6.91665 16.9833C6.94999 17.1833 7.12499 17.3333 7.33332 17.3333H10.6667C10.875 17.3333 11.05 17.1833 11.0833 16.9833L11.3917 14.775C11.9167 14.5583 12.3667 14.2833 12.8 13.95L14.875 14.7916C15.0583 14.8583 15.2833 14.7916 15.3833 14.6083L17.05 11.725C17.15 11.5416 17.1083 11.3166 16.95 11.1916L15.1917 9.80829Z" fill="white"/>
</svg>
